<?xml version="1.0" standalone="no"?>
<!DOCTYPE svg PUBLIC "-//W3C//DTD SVG 1.1//EN" "http://www.w3.org/Graphics/SVG/1.1/DTD/svg11.dtd" >
<svg xmlns="http://www.w3.org/2000/svg" xmlns:xlink="http://www.w3.org/1999/xlink" version="1.1">
<metadata>
Created by FontForge 20170731 at Sun Jun 19 02:06:51 2016
 By Aleksey,,,
Copyright (c) 2015 by deFharo. All rights reserved.
</metadata>
<defs>
<font id="TheJukeBox-FFP" horiz-adv-x="209" >
  <font-face 
    font-family="The Juke Box"
    font-weight="400"
    font-stretch="ultra-condensed"
    units-per-em="1000"
    panose-1="2 0 10 0 0 0 0 0 0 0"
    ascent="832"
    descent="-168"
    x-height="832"
    cap-height="832"
    bbox="-85 -132 1510 949"
    underline-thickness="65"
    underline-position="-174"
    unicode-range="U+000D-FB06"
  />
<missing-glyph horiz-adv-x="510" 
d="M152 285v344h207v-137h137v-207h-344zM282 533v52h-50v-52h50zM16 285h136v-137zM-8 0v53h537v-53h-537zM-8 779v53h537v-53h-537z" />
    <glyph glyph-name=".notdef" horiz-adv-x="510" 
d="M152 285v344h207v-137h137v-207h-344zM282 533v52h-50v-52h50zM16 285h136v-137zM-8 0v53h537v-53h-537zM-8 779v53h537v-53h-537z" />
    <glyph glyph-name=".null" horiz-adv-x="0" 
 />
    <glyph glyph-name="nonmarkingreturn" unicode="&#xd;" horiz-adv-x="95" 
 />
    <glyph glyph-name="NULL" horiz-adv-x="0" 
 />
    <glyph glyph-name="NULL" horiz-adv-x="0" 
 />
    <glyph glyph-name="space" unicode=" " horiz-adv-x="95" 
d="M-8 0v53h117v-53h-117zM-8 779v53h117v-53h-117z" />
    <glyph glyph-name="exclam" unicode="!" horiz-adv-x="104" 
d="M13 729h77v-482h-77v482zM89 181v-76h-76v76h76zM-8 0v53h128v-53h-128zM-8 779v53h128v-53h-128z" />
    <glyph glyph-name="quotedbl" unicode="&#x22;" horiz-adv-x="192" 
d="M111 779h-27v-149h-76v149h-16v53h222v-53h-26v-149h-77v149zM-8 0v53h222v-53h-222z" />
    <glyph glyph-name="numbersign" unicode="#" horiz-adv-x="240" 
d="M103 457l-10 -99h42l10 99h-42zM149 504l22 225h47l-22 -225h36l-3 -47h-38l-9 -99h36l-3 -48h-38l-19 -205h-47l20 205h-42l-20 -205h-46l19 205h-44l3 48h46l9 99h-40l2 47h43l22 225h46l-22 -225h42zM-8 0v53h263v-53h-263zM-8 779v53h263v-53h-263z" />
    <glyph glyph-name="dollar" unicode="$" horiz-adv-x="207" 
d="M66 764h76v-38q26 -11 39.5 -35t13.5 -58v-54h-77v67q0 21 -13 21q-15 0 -15 -21v-145q0 -17 12.5 -27.5t45.5 -33.5q22 -15 34.5 -36t12.5 -53v-147q0 -34 -13.5 -59.5t-39.5 -36.5v-35h-76v35q-27 11 -40 36.5t-13 59.5v50h77v-64q0 -8 3.5 -14t11.5 -6q13 0 13 20v143
q0 12 -2.5 20t-9 15.5t-17 15t-25.5 18.5q-21 14 -36 34.5t-15 49.5v147q0 32 14 56t39 35v40zM-8 0v53h232v-53h-232zM-8 779v53h232v-53h-232z" />
    <glyph glyph-name="percent" unicode="%" horiz-adv-x="197" 
d="M179 557q0 -42 -22 -67.5t-59 -25.5q-41 0 -62 25.5t-21 67.5v87q0 41 23.5 65.5t59.5 24.5q38 0 59.5 -24.5t21.5 -65.5v-87zM110 656q0 18 -13 18q-7 0 -9.5 -5t-2.5 -13v-111q0 -18 13 -18q12 0 12 18v111zM179 195q0 -42 -22 -67.5t-59 -25.5q-41 0 -62 25.5
t-21 67.5v88q0 41 23.5 65t59.5 24q38 0 59.5 -24t21.5 -65v-88zM110 294q0 18 -13 18q-12 0 -12 -18v-111q0 -19 13 -19q12 0 12 19v111zM15 419l165 45v-45l-165 -45v45zM-8 0v53h219v-53h-219zM-8 779v53h219v-53h-219z" />
    <glyph glyph-name="ampersand" unicode="&#x26;" horiz-adv-x="222" 
d="M118 481h101v-65h-24v-222q0 -42 -24 -67t-69 -25q-47 0 -68 27t-21 65v197q0 26 11.5 38t22.5 17q-11 5 -22.5 21t-11.5 36v139q0 92 91 92q45 0 68 -21t23 -71v-55h-77v55q0 12 -2.5 19t-11.5 7t-11.5 -6.5t-2.5 -19.5v-139q0 -13 2 -17t14 -4v-66q-11 0 -13.5 -5.5
t-2.5 -20.5v-193q0 -11 2 -18.5t12 -7.5q9 0 11.5 7.5t2.5 18.5v284zM-8 0v53h243v-53h-243zM-8 779v53h243v-53h-243z" />
    <glyph glyph-name="quotesingle" unicode="'" horiz-adv-x="104" 
d="M90 779v-149h-77v149h-21v53h129v-53h-31zM-8 0v53h129v-53h-129z" />
    <glyph glyph-name="parenleft" unicode="(" horiz-adv-x="1309" 
d="M1359 0h-873l-137 238h448q-7 14 -12 29l-10 30h-461l-138 238h599q9 28 23 59h-657l-138 238h1356v-54h-184q-75 0 -141.5 -28.5t-115.5 -77.5t-77.5 -115.5t-28.5 -141.5q0 -72 25.5 -138t71.5 -115.5t109 -79t137 -29.5h204v-53z" />
    <glyph glyph-name="parenright" unicode=")" horiz-adv-x="1309" 
d="M-58 53h204q74 0 137 29.5t108.5 79t71.5 115.5t26 138q0 75 -28.5 141.5t-77.5 115.5t-115.5 77.5t-141.5 28.5h-184v54h1356l-138 -238h-657q14 -31 23 -59h599l-138 -238h-461l-10 -30t-12 -29h448l-137 -238h-873v53z" />
    <glyph glyph-name="asterisk" unicode="*" horiz-adv-x="203" 
d="M137 543l-36 51l-36 -51l-38 27l36 51l-60 20l14 44l60 -20v64h47v-64l61 20l14 -44l-61 -20l36 -51zM-8 0v53h233v-53h-233zM-8 779v53h233v-53h-233z" />
    <glyph glyph-name="plus" unicode="+" horiz-adv-x="203" 
d="M13 383v65h57v68h64v-68h56v-65h-56v-68h-64v68h-57zM-8 0v53h226v-53h-226zM-8 779v53h226v-53h-226z" />
    <glyph glyph-name="comma" unicode="," horiz-adv-x="104" 
d="M13 190h77v-70l-77 -65v135zM-8 0v53h127v-53h-127zM-8 779v53h127v-53h-127z" />
    <glyph glyph-name="hyphen" unicode="-" horiz-adv-x="124" 
d="M12 450h99v-65h-99v65zM-8 0v53h146v-53h-146zM-8 779v53h146v-53h-146z" />
    <glyph glyph-name="period" unicode="." horiz-adv-x="103" 
d="M13 200h76v-76h-76v76zM-8 0v53h129v-53h-129zM-8 779v53h129v-53h-129z" />
    <glyph glyph-name="slash" unicode="/" horiz-adv-x="138" 
d="M-11 105l83 624h76l-81 -624h-78zM-8 0v53h163v-53h-163zM-8 779v53h163v-53h-163z" />
    <glyph glyph-name="zero" unicode="0" horiz-adv-x="1272" 
d="M966 476l-25 -120h119q20 0 31.5 -12t11.5 -30q0 -26 -20 -45t-45 -19h-120l-30 -144h75q20 0 31.5 -12t11.5 -30q0 -13 -5.5 -24.5t-15 -20.5t-21 -14t-23.5 -5h-602q-12 0 -23.5 5t-21 14t-15 20.5t-5.5 24.5q0 18 11.5 30t31.5 12h63l-30 144h-120q-25 0 -45 19
t-20 45q0 18 11.5 30t31.5 12h119l-25 120h-168q-24 0 -44.5 19t-20.5 45q0 18 11.5 30t31.5 12h167l-30 144h-179q-25 0 -45 19.5t-20 45.5q0 17 11.5 29t30.5 12h1174q19 0 30.5 -12t11.5 -29q0 -26 -20 -45.5t-45 -19.5h-179l-30 -144h167q20 0 31.5 -12t11.5 -30
q0 -26 -20.5 -45t-44.5 -19h-168zM452 53h364l154 726h-672zM641 397h60q19 0 36.5 -4t30.5 -13t21 -23.5t8 -36.5q0 -40 -25.5 -61t-62.5 -21h-28v-134h-40v293zM570 280v293h153v-37h-112v-64h71v-36h-71v-156h-41zM497 436v293h153v-37h-113v-64h72v-36h-72v-156h-40z
M681 360v-86h21q22 0 38 10t17 35q-1 22 -15.5 31.5t-34.5 9.5h-26z" />
    <glyph glyph-name="one" unicode="1" horiz-adv-x="1272" 
d="M966 476l-25 -120h119q20 0 31.5 -12t11.5 -30q0 -26 -20 -45t-45 -19h-120l-30 -144h75q20 0 31.5 -12t11.5 -30q0 -13 -5.5 -24.5t-15 -20.5t-21 -14t-23.5 -5h-602q-12 0 -23.5 5t-21 14t-15 20.5t-5.5 24.5q0 18 11.5 30t31.5 12h63l-30 144h-120q-25 0 -45 19
t-20 45q0 18 11.5 30t31.5 12h119l-25 120h-168q-24 0 -44.5 19t-20.5 45q0 18 11.5 30t31.5 12h167l-30 144h-179q-25 0 -45 19.5t-20 45.5q0 17 11.5 29t30.5 12h1174q19 0 30.5 -12t11.5 -29q0 -26 -20 -45.5t-45 -19.5h-179l-30 -144h167q20 0 31.5 -12t11.5 -30
q0 -26 -20.5 -45t-44.5 -19h-168zM452 53h364l154 726h-672zM641 397h60q19 0 36.5 -4t30.5 -13t21 -23.5t8 -36.5q0 -40 -25.5 -61t-62.5 -21h-28v-134h-40v293zM570 280v293h153v-37h-112v-64h71v-36h-71v-156h-41zM497 436v293h153v-37h-113v-64h72v-36h-72v-156h-40z
M681 360v-86h21q22 0 38 10t17 35q-1 22 -15.5 31.5t-34.5 9.5h-26z" />
    <glyph glyph-name="two" unicode="2" horiz-adv-x="1272" 
d="M966 476l-25 -120h119q20 0 31.5 -12t11.5 -30q0 -26 -20 -45t-45 -19h-120l-30 -144h75q20 0 31.5 -12t11.5 -30q0 -13 -5.5 -24.5t-15 -20.5t-21 -14t-23.5 -5h-602q-12 0 -23.5 5t-21 14t-15 20.5t-5.5 24.5q0 18 11.5 30t31.5 12h63l-30 144h-120q-25 0 -45 19
t-20 45q0 18 11.5 30t31.5 12h119l-25 120h-168q-24 0 -44.5 19t-20.5 45q0 18 11.5 30t31.5 12h167l-30 144h-179q-25 0 -45 19.5t-20 45.5q0 17 11.5 29t30.5 12h1174q19 0 30.5 -12t11.5 -29q0 -26 -20 -45.5t-45 -19.5h-179l-30 -144h167q20 0 31.5 -12t11.5 -30
q0 -26 -20.5 -45t-44.5 -19h-168zM452 53h364l154 726h-672zM641 397h60q19 0 36.5 -4t30.5 -13t21 -23.5t8 -36.5q0 -40 -25.5 -61t-62.5 -21h-28v-134h-40v293zM570 280v293h153v-37h-112v-64h71v-36h-71v-156h-41zM497 436v293h153v-37h-113v-64h72v-36h-72v-156h-40z
M681 360v-86h21q22 0 38 10t17 35q-1 22 -15.5 31.5t-34.5 9.5h-26z" />
    <glyph glyph-name="three" unicode="3" horiz-adv-x="1272" 
d="M966 476l-25 -120h119q20 0 31.5 -12t11.5 -30q0 -26 -20 -45t-45 -19h-120l-30 -144h75q20 0 31.5 -12t11.5 -30q0 -13 -5.5 -24.5t-15 -20.5t-21 -14t-23.5 -5h-602q-12 0 -23.5 5t-21 14t-15 20.5t-5.5 24.5q0 18 11.5 30t31.5 12h63l-30 144h-120q-25 0 -45 19
t-20 45q0 18 11.5 30t31.5 12h119l-25 120h-168q-24 0 -44.5 19t-20.5 45q0 18 11.5 30t31.5 12h167l-30 144h-179q-25 0 -45 19.5t-20 45.5q0 17 11.5 29t30.5 12h1174q19 0 30.5 -12t11.5 -29q0 -26 -20 -45.5t-45 -19.5h-179l-30 -144h167q20 0 31.5 -12t11.5 -30
q0 -26 -20.5 -45t-44.5 -19h-168zM452 53h364l154 726h-672zM641 397h60q19 0 36.5 -4t30.5 -13t21 -23.5t8 -36.5q0 -40 -25.5 -61t-62.5 -21h-28v-134h-40v293zM570 280v293h153v-37h-112v-64h71v-36h-71v-156h-41zM497 436v293h153v-37h-113v-64h72v-36h-72v-156h-40z
M681 360v-86h21q22 0 38 10t17 35q-1 22 -15.5 31.5t-34.5 9.5h-26z" />
    <glyph glyph-name="four" unicode="4" horiz-adv-x="1272" 
d="M966 476l-25 -120h119q20 0 31.5 -12t11.5 -30q0 -26 -20 -45t-45 -19h-120l-30 -144h75q20 0 31.5 -12t11.5 -30q0 -13 -5.5 -24.5t-15 -20.5t-21 -14t-23.5 -5h-602q-12 0 -23.5 5t-21 14t-15 20.5t-5.5 24.5q0 18 11.5 30t31.5 12h63l-30 144h-120q-25 0 -45 19
t-20 45q0 18 11.5 30t31.5 12h119l-25 120h-168q-24 0 -44.5 19t-20.5 45q0 18 11.5 30t31.5 12h167l-30 144h-179q-25 0 -45 19.5t-20 45.5q0 17 11.5 29t30.5 12h1174q19 0 30.5 -12t11.5 -29q0 -26 -20 -45.5t-45 -19.5h-179l-30 -144h167q20 0 31.5 -12t11.5 -30
q0 -26 -20.5 -45t-44.5 -19h-168zM452 53h364l154 726h-672zM641 397h60q19 0 36.5 -4t30.5 -13t21 -23.5t8 -36.5q0 -40 -25.5 -61t-62.5 -21h-28v-134h-40v293zM570 280v293h153v-37h-112v-64h71v-36h-71v-156h-41zM497 436v293h153v-37h-113v-64h72v-36h-72v-156h-40z
M681 360v-86h21q22 0 38 10t17 35q-1 22 -15.5 31.5t-34.5 9.5h-26z" />
    <glyph glyph-name="five" unicode="5" horiz-adv-x="1272" 
d="M966 476l-25 -120h119q20 0 31.5 -12t11.5 -30q0 -26 -20 -45t-45 -19h-120l-30 -144h75q20 0 31.5 -12t11.5 -30q0 -13 -5.5 -24.5t-15 -20.5t-21 -14t-23.5 -5h-602q-12 0 -23.5 5t-21 14t-15 20.5t-5.5 24.5q0 18 11.5 30t31.5 12h63l-30 144h-120q-25 0 -45 19
t-20 45q0 18 11.5 30t31.5 12h119l-25 120h-168q-24 0 -44.5 19t-20.5 45q0 18 11.5 30t31.5 12h167l-30 144h-179q-25 0 -45 19.5t-20 45.5q0 17 11.5 29t30.5 12h1174q19 0 30.5 -12t11.5 -29q0 -26 -20 -45.5t-45 -19.5h-179l-30 -144h167q20 0 31.5 -12t11.5 -30
q0 -26 -20.5 -45t-44.5 -19h-168zM452 53h364l154 726h-672zM641 397h60q19 0 36.5 -4t30.5 -13t21 -23.5t8 -36.5q0 -40 -25.5 -61t-62.5 -21h-28v-134h-40v293zM570 280v293h153v-37h-112v-64h71v-36h-71v-156h-41zM497 436v293h153v-37h-113v-64h72v-36h-72v-156h-40z
M681 360v-86h21q22 0 38 10t17 35q-1 22 -15.5 31.5t-34.5 9.5h-26z" />
    <glyph glyph-name="six" unicode="6" horiz-adv-x="1272" 
d="M966 476l-25 -120h119q20 0 31.5 -12t11.5 -30q0 -26 -20 -45t-45 -19h-120l-30 -144h75q20 0 31.5 -12t11.5 -30q0 -13 -5.5 -24.5t-15 -20.5t-21 -14t-23.5 -5h-602q-12 0 -23.5 5t-21 14t-15 20.5t-5.5 24.5q0 18 11.5 30t31.5 12h63l-30 144h-120q-25 0 -45 19
t-20 45q0 18 11.5 30t31.5 12h119l-25 120h-168q-24 0 -44.5 19t-20.5 45q0 18 11.5 30t31.5 12h167l-30 144h-179q-25 0 -45 19.5t-20 45.5q0 17 11.5 29t30.5 12h1174q19 0 30.5 -12t11.5 -29q0 -26 -20 -45.5t-45 -19.5h-179l-30 -144h167q20 0 31.5 -12t11.5 -30
q0 -26 -20.5 -45t-44.5 -19h-168zM452 53h364l154 726h-672zM641 397h60q19 0 36.5 -4t30.5 -13t21 -23.5t8 -36.5q0 -40 -25.5 -61t-62.5 -21h-28v-134h-40v293zM570 280v293h153v-37h-112v-64h71v-36h-71v-156h-41zM497 436v293h153v-37h-113v-64h72v-36h-72v-156h-40z
M681 360v-86h21q22 0 38 10t17 35q-1 22 -15.5 31.5t-34.5 9.5h-26z" />
    <glyph glyph-name="seven" unicode="7" horiz-adv-x="1272" 
d="M966 476l-25 -120h119q20 0 31.5 -12t11.5 -30q0 -26 -20 -45t-45 -19h-120l-30 -144h75q20 0 31.5 -12t11.5 -30q0 -13 -5.5 -24.5t-15 -20.5t-21 -14t-23.5 -5h-602q-12 0 -23.5 5t-21 14t-15 20.5t-5.5 24.5q0 18 11.5 30t31.5 12h63l-30 144h-120q-25 0 -45 19
t-20 45q0 18 11.5 30t31.5 12h119l-25 120h-168q-24 0 -44.5 19t-20.5 45q0 18 11.5 30t31.5 12h167l-30 144h-179q-25 0 -45 19.5t-20 45.5q0 17 11.5 29t30.5 12h1174q19 0 30.5 -12t11.5 -29q0 -26 -20 -45.5t-45 -19.5h-179l-30 -144h167q20 0 31.5 -12t11.5 -30
q0 -26 -20.5 -45t-44.5 -19h-168zM452 53h364l154 726h-672zM641 397h60q19 0 36.5 -4t30.5 -13t21 -23.5t8 -36.5q0 -40 -25.5 -61t-62.5 -21h-28v-134h-40v293zM570 280v293h153v-37h-112v-64h71v-36h-71v-156h-41zM497 436v293h153v-37h-113v-64h72v-36h-72v-156h-40z
M681 360v-86h21q22 0 38 10t17 35q-1 22 -15.5 31.5t-34.5 9.5h-26z" />
    <glyph glyph-name="eight" unicode="8" horiz-adv-x="1272" 
d="M966 476l-25 -120h119q20 0 31.5 -12t11.5 -30q0 -26 -20 -45t-45 -19h-120l-30 -144h75q20 0 31.5 -12t11.5 -30q0 -13 -5.5 -24.5t-15 -20.5t-21 -14t-23.5 -5h-602q-12 0 -23.5 5t-21 14t-15 20.5t-5.5 24.5q0 18 11.5 30t31.5 12h63l-30 144h-120q-25 0 -45 19
t-20 45q0 18 11.5 30t31.5 12h119l-25 120h-168q-24 0 -44.5 19t-20.5 45q0 18 11.5 30t31.5 12h167l-30 144h-179q-25 0 -45 19.5t-20 45.5q0 17 11.5 29t30.5 12h1174q19 0 30.5 -12t11.5 -29q0 -26 -20 -45.5t-45 -19.5h-179l-30 -144h167q20 0 31.5 -12t11.5 -30
q0 -26 -20.5 -45t-44.5 -19h-168zM452 53h364l154 726h-672zM641 397h60q19 0 36.5 -4t30.5 -13t21 -23.5t8 -36.5q0 -40 -25.5 -61t-62.5 -21h-28v-134h-40v293zM570 280v293h153v-37h-112v-64h71v-36h-71v-156h-41zM497 436v293h153v-37h-113v-64h72v-36h-72v-156h-40z
M681 360v-86h21q22 0 38 10t17 35q-1 22 -15.5 31.5t-34.5 9.5h-26z" />
    <glyph glyph-name="nine" unicode="9" horiz-adv-x="1272" 
d="M966 476l-25 -120h119q20 0 31.5 -12t11.5 -30q0 -26 -20 -45t-45 -19h-120l-30 -144h75q20 0 31.5 -12t11.5 -30q0 -13 -5.5 -24.5t-15 -20.5t-21 -14t-23.5 -5h-602q-12 0 -23.5 5t-21 14t-15 20.5t-5.5 24.5q0 18 11.5 30t31.5 12h63l-30 144h-120q-25 0 -45 19
t-20 45q0 18 11.5 30t31.5 12h119l-25 120h-168q-24 0 -44.5 19t-20.5 45q0 18 11.5 30t31.5 12h167l-30 144h-179q-25 0 -45 19.5t-20 45.5q0 17 11.5 29t30.5 12h1174q19 0 30.5 -12t11.5 -29q0 -26 -20 -45.5t-45 -19.5h-179l-30 -144h167q20 0 31.5 -12t11.5 -30
q0 -26 -20.5 -45t-44.5 -19h-168zM452 53h364l154 726h-672zM641 397h60q19 0 36.5 -4t30.5 -13t21 -23.5t8 -36.5q0 -40 -25.5 -61t-62.5 -21h-28v-134h-40v293zM570 280v293h153v-37h-112v-64h71v-36h-71v-156h-41zM497 436v293h153v-37h-113v-64h72v-36h-72v-156h-40z
M681 360v-86h21q22 0 38 10t17 35q-1 22 -15.5 31.5t-34.5 9.5h-26z" />
    <glyph glyph-name="colon" unicode=":" horiz-adv-x="103" 
d="M13 201h76v-76h-76v76zM13 412h76v-76h-76v76zM-8 0v53h126v-53h-126zM-8 779v53h126v-53h-126z" />
    <glyph glyph-name="semicolon" unicode=";" horiz-adv-x="104" 
d="M13 202h77v-70l-77 -64v134zM13 412h76v-75h-76v75zM-9 0v53h129v-53h-129zM-9 779v53h129v-53h-129z" />
    <glyph glyph-name="less" unicode="&#x3c;" horiz-adv-x="1115" 
d="M65 476q-24 0 -44.5 19t-20.5 45q0 18 11.5 30t31.5 12h587l-30 144h-431q-25 0 -45 19.5t-20 45.5q0 17 11.5 29t30.5 12h1024v-53h-521l154 -726h364v-53h-693q-12 0 -23.5 5t-21 14t-15 20.5t-5.5 24.5q0 18 11.5 30t31.5 12h279l-30 144h-540q-25 0 -45 19t-20 45
q0 18 11.5 30t31.5 12h539l-25 120h-588z" />
    <glyph glyph-name="equal" unicode="=" horiz-adv-x="203" 
d="M16 335v66h170v-66h-170zM16 434v66h170v-66h-170zM-9 0v53h234v-53h-234zM-9 779v53h234v-53h-234z" />
    <glyph glyph-name="greater" unicode="&#x3e;" horiz-adv-x="1106" 
d="M1041 476h-588l-25 -120h539q20 0 31.5 -12t11.5 -30q0 -26 -20 -45t-45 -19h-540l-30 -144h279q20 0 31.5 -12t11.5 -30q0 -13 -5.5 -24.5t-15 -20.5t-21 -14t-23.5 -5h-693v53h364l154 726h-521v53h1024q19 0 30.5 -12t11.5 -29q0 -26 -20 -45.5t-45 -19.5h-431
l-30 -144h587q20 0 31.5 -12t11.5 -30q0 -26 -20.5 -45t-44.5 -19z" />
    <glyph glyph-name="question" unicode="?" horiz-adv-x="203" 
d="M189 432q0 -26 -13.5 -40t-28.5 -25q-13 -9 -21.5 -17.5t-8.5 -19.5v-83h-76v89q0 32 14.5 47t30.5 24q11 6 18 13t7 18v203q0 13 -1.5 19.5t-11.5 6.5q-14 0 -14 -26v-161h-77v161q0 51 24.5 71t66.5 20q43 0 67 -21.5t24 -69.5v-209zM41 181h76v-76h-76v76zM-8 0v53
h226v-53h-226zM-8 779v53h226v-53h-226z" />
    <glyph glyph-name="at" unicode="@" horiz-adv-x="466" 
d="M42 832h388v-606q0 -44 -23 -60.5t-70 -16.5h-87l-1 9q-5 -5 -12.5 -9t-23.5 -4q-42 0 -55.5 29t-13.5 74v114q0 43 14.5 71t52.5 28q17 0 25 -3.5t13 -8.5v144q0 21 -15 21q-7 0 -10 -6t-3 -15v-70h-77v64q0 42 24 67t66 25q45 0 67.5 -25.5t22.5 -73.5v-369h38
q10 0 10 12v556h-270v-726h96v52h53v-105h-209v832zM249 375q0 8 -3.5 14t-11.5 6q-13 0 -13 -20v-141q0 -20 13 -20q15 0 15 20v141z" />
    <glyph glyph-name="A" unicode="A" horiz-adv-x="204" 
d="M115 293h-28v-188h-78v528q0 46 26 72.5t67 26.5q42 0 66 -26.5t24 -72.5v-528h-77v188zM87 358h28v288q0 21 -13 21q-9 0 -12 -6.5t-3 -14.5v-288zM-20 0v53h236v-53h-236zM-20 779v53h236v-53h-236z" />
    <glyph glyph-name="B" unicode="B" horiz-adv-x="208" 
d="M195 209q0 -20 -4.5 -38.5t-15 -33t-27 -23.5t-40.5 -9h-96v624h93q43 0 66.5 -26.5t23.5 -70.5v-129q0 -21 -9.5 -36t-23.5 -22q14 -5 23.5 -19.5t9.5 -34.5v-182zM117 642q0 22 -12 22h-15v-183h18q9 0 9 19v142zM117 398q0 7 -2 12t-7 5h-18v-241h18q9 0 9 19v205z
M-8 0v53h224v-53h-224zM-8 779v53h224v-53h-224z" />
    <glyph glyph-name="C" unicode="C" horiz-adv-x="202" 
d="M195 204q0 -42 -22.5 -72.5t-67.5 -30.5q-46 0 -69.5 29t-23.5 74v430q0 43 25 71t68 28q47 0 68.5 -29.5t21.5 -69.5v-101h-78v113q0 21 -13 21q-14 0 -14 -21v-450q0 -11 2.5 -18.5t12.5 -7.5q8 0 10 7.5t2 18.5v111h78v-103zM-8 0v53h224v-53h-224zM-8 779v53h224v-53
h-224z" />
    <glyph glyph-name="D" unicode="D" horiz-adv-x="208" 
d="M195 209q0 -42 -20.5 -73t-71.5 -31h-91v624h92q48 0 69.5 -26.5t21.5 -73.5v-420zM117 639q0 25 -16 25h-11v-490h10q11 0 14 7t3 18v440zM-20 0v53h248v-53h-248zM-20 779v53h248v-53h-248z" />
    <glyph glyph-name="E" unicode="E" horiz-adv-x="186" 
d="M13 105v624h164v-65h-86v-206h62v-67h-62v-221h86v-65h-164zM-20 0v53h218v-53h-218zM-20 779v53h218v-53h-218z" />
    <glyph glyph-name="F" unicode="F" horiz-adv-x="184" 
d="M91 415v-310h-78v624h164v-65h-86v-183h62v-66h-62zM-8 0v53h206v-53h-206zM-8 779v53h206v-53h-206z" />
    <glyph glyph-name="G" unicode="G" horiz-adv-x="208" 
d="M195 203q0 -44 -23 -73.5t-67 -29.5q-48 0 -70.5 30t-22.5 73v430q0 46 26.5 72.5t65.5 26.5q44 0 67.5 -27t23.5 -72v-101h-78v113q0 21 -13 21q-8 0 -11 -6t-3 -15v-456q0 -8 3.5 -14t11.5 -6q12 0 12 20v188h-17v67h95v-241zM-8 0v53h224v-53h-224zM-8 779v53h224v-53
h-224z" />
    <glyph glyph-name="H" unicode="H" horiz-adv-x="208" 
d="M117 105v286h-27v-286h-78v624h78v-271h27v271h78v-624h-78zM-20 0v53h248v-53h-248zM-20 779v53h248v-53h-248z" />
    <glyph glyph-name="I" unicode="I" horiz-adv-x="104" 
d="M13 105v624h77v-624h-77zM-20 0v53h148v-53h-148zM-20 779v53h148v-53h-148z" />
    <glyph glyph-name="J" unicode="J" horiz-adv-x="146" 
d="M132 196q0 -42 -22.5 -66.5t-66.5 -24.5h-40v64h33q20 0 20 27v461h-53v72h129v-533zM-8 0v53h166v-53h-166zM-8 779v53h166v-53h-166z" />
    <glyph glyph-name="K" unicode="K" horiz-adv-x="246" 
d="M158 105l-45 259l-22 -73v-186h-78v624h78v-264l69 264h87l-81 -267l80 -357h-88zM-8 0v53h267v-53h-267zM-8 779v53h267v-53h-267z" />
    <glyph glyph-name="L" unicode="L" horiz-adv-x="180" 
d="M13 105v624h78v-559h86v-65h-164zM-8 0v53h202v-53h-202zM-8 779v53h202v-53h-202z" />
    <glyph glyph-name="M" unicode="M" horiz-adv-x="294" 
d="M203 105v322l-37 -201h-42l-33 201v-322h-78v624h96l37 -340l39 340h95v-624h-77zM-8 0v53h317v-53h-317zM-8 779v53h317v-53h-317z" />
    <glyph glyph-name="N" unicode="N" horiz-adv-x="258" 
d="M165 388v341h77v-624h-71l-80 335v-335h-78v624h73zM-8 0v53h277v-53h-277zM-8 779v53h277v-53h-277z" />
    <glyph glyph-name="O" unicode="O" horiz-adv-x="208" 
d="M195 205q0 -46 -24.5 -74.5t-65.5 -28.5q-45 0 -69 28t-24 75v430q0 45 26 72t67 27q42 0 66 -27t24 -72v-430zM117 647q0 21 -13 21q-8 0 -11 -6t-3 -15v-456q0 -20 15 -20q12 0 12 20v456zM-20 0v53h248v-53h-248zM-20 779v53h248v-53h-248z" />
    <glyph glyph-name="P" unicode="P" horiz-adv-x="202" 
d="M195 465q0 -43 -21.5 -69.5t-62.5 -26.5h-21v-264h-78v624h90q48 0 70.5 -26t22.5 -69v-169zM117 644q0 20 -14 20h-13v-229h13q14 0 14 20v189zM-20 0v53h236v-53h-236zM-20 779v53h236v-53h-236z" />
    <glyph glyph-name="Q" unicode="Q" horiz-adv-x="208" 
d="M-8 0v53h208l-56 55q-9 -2 -19.5 -4t-21.5 -2q-90 0 -90 92v447q0 48 22.5 69.5t68.5 21.5q91 0 91 -91v-447q0 -9 -1 -16.5t-2 -15.5l16 -15v-94h8v-53h-224zM91 195q0 -25 13 -25q8 0 11 5.5t3 19.5v446q0 26 -14 26q-8 0 -10.5 -6t-2.5 -20v-446zM-8 779v53h224v-53
h-224z" />
    <glyph glyph-name="R" unicode="R" horiz-adv-x="208" 
d="M160 391q19 -5 27 -22t8 -45v-163q0 -21 1 -31.5t6 -18.5v-6h-74q-2 4 -4 10q-3 10 -3 33v198q0 16 -18 16h-12v-257h-78v624h90q45 0 68.5 -20.5t23.5 -60.5v-181q0 -28 -9.5 -46.5t-25.5 -29.5zM-8 779v53h224v-53h-224zM-8 0v53h224v-53h-224zM118 648q0 16 -12 16
h-15v-218h14q13 0 13 24v178z" />
    <glyph glyph-name="S" unicode="S" horiz-adv-x="202" 
d="M192 204q0 -45 -23.5 -74t-67.5 -29q-45 0 -68.5 29t-23.5 74v96h78v-110q0 -8 3 -14t11 -6q13 0 13 20v144q0 22 -11.5 34.5t-42.5 33.5q-21 14 -36 34t-15 50v148q0 44 25 71.5t68 27.5q44 0 67 -28t23 -71v-101h-78v113q0 21 -13 21q-14 0 -14 -21v-145
q0 -8 2.5 -14.5t9.5 -13t17.5 -14.5t27.5 -19q22 -14 35 -35.5t13 -53.5v-147zM-8 0v53h224v-53h-224zM-8 779v53h224v-53h-224z" />
    <glyph glyph-name="T" unicode="T" horiz-adv-x="164" 
d="M47 105v552h-56v72h182v-72h-49v-552h-77zM-8 0v53h188v-53h-188zM-8 779v53h188v-53h-188z" />
    <glyph glyph-name="U" unicode="U" horiz-adv-x="208" 
d="M195 204q0 -19 -5 -37.5t-16.5 -32.5t-28.5 -23t-41 -9q-25 0 -42.5 8.5t-28.5 23t-16 32.5t-5 38v525h78v-538q0 -20 15 -20q7 0 9.5 6t2.5 14v538h78v-525zM-20 0v53h248v-53h-248zM-20 779v53h248v-53h-248z" />
    <glyph glyph-name="V" unicode="V" horiz-adv-x="233" 
d="M67 105l-69 624h86l32 -458l34 458h84l-68 -624h-99zM-8 0v53h253v-53h-253zM-8 779v53h253v-53h-253z" />
    <glyph glyph-name="W" unicode="W" horiz-adv-x="365" 
d="M227 105l-44 455l-41 -455h-81l-63 624h84l37 -445l40 445h53l35 -443l38 443h82l-63 -624h-77zM-8 0v53h409v-53h-409zM-8 779v53h409v-53h-409z" />
    <glyph glyph-name="X" unicode="X" horiz-adv-x="248" 
d="M171 427l76 -322h-84l-41 223l-37 -223h-86l72 322l-72 302h85l38 -218l40 218h86zM-8 0v53h266v-53h-266zM-8 779v53h266v-53h-266z" />
    <glyph glyph-name="Y" unicode="Y" horiz-adv-x="240" 
d="M158 345v-240h-76v239l-82 385h85l36 -290q0 2 1.5 15.5t3.5 34.5t5 46.5t6 52.5q7 62 17 141h85zM-8 0v53h259v-53h-259zM-8 779v53h259v-53h-259z" />
    <glyph glyph-name="Z" unicode="Z" horiz-adv-x="196" 
d="M6 105v67l105 492h-105v65h183v-67l-105 -492h105v-65h-183zM-8 0v53h217v-53h-217zM-8 779v53h217v-53h-217z" />
    <glyph glyph-name="bracketleft" unicode="[" horiz-adv-x="1457" 
d="M977 416q0 -25 -9.5 -46.5t-26 -37.5t-38.5 -25.5t-47 -9.5h-558q-25 0 -47 9.5t-38.5 25.5t-26 37.5t-9.5 46.5t9.5 46.5t26 37.5t38.5 25.5t47 9.5h558q25 0 47 -9.5t38.5 -25.5t26 -37.5t9.5 -46.5zM803 713q0 -25 -9.5 -46.5t-26 -38t-38.5 -26t-47 -9.5h-558
q-25 0 -47 9.5t-38.5 26t-26 38t-9.5 46.5q0 24 9.5 46t26 38t38.5 25.5t47 9.5h1386v-53h-728q10 -14 15.5 -31t5.5 -35zM1149 119q0 -18 -5.5 -35t-15.5 -31h382v-53h-1040q-25 0 -47 9.5t-38.5 25.5t-26 37.5t-9.5 46.5t9.5 46.5t26 38t38.5 26t47 9.5h558q25 0 47 -9.5
t38.5 -26t26 -38t9.5 -46.5z" />
    <glyph glyph-name="backslash" unicode="\" horiz-adv-x="265" 
d="M-30 0v53h216v726h-216v53h269v-832h-269z" />
    <glyph glyph-name="bracketright" unicode="]" horiz-adv-x="1462" 
d="M473 416q0 25 9.5 46.5t26 37.5t38.5 25.5t47 9.5h558q25 0 47 -9.5t38.5 -25.5t26 -37.5t9.5 -46.5t-9.5 -46.5t-26 -37.5t-38.5 -25.5t-47 -9.5h-558q-25 0 -47 9.5t-38.5 25.5t-26 37.5t-9.5 46.5zM647 713q0 18 5.5 35t15.5 31h-728v53h1386q25 0 47 -9.5t38.5 -25.5
t26 -38t9.5 -46q0 -25 -9.5 -46.5t-26 -38t-38.5 -26t-47 -9.5h-558q-25 0 -47 9.5t-38.5 26t-26 38t-9.5 46.5zM301 119q0 25 9.5 46.5t26 38t38.5 26t47 9.5h558q25 0 47 -9.5t38.5 -26t26 -38t9.5 -46.5t-9.5 -46.5t-26 -37.5t-38.5 -25.5t-47 -9.5h-1040v53h382
q-10 14 -15.5 31t-5.5 35z" />
    <glyph glyph-name="asciicircum" unicode="^" horiz-adv-x="213" 
d="M0 491l71 168h72l70 -168h-60l-46 85l-47 -85h-60z" />
    <glyph glyph-name="underscore" unicode="_" horiz-adv-x="240" 
d="M16 0v832h269v-53h-216v-726h216v-53h-269z" />
    <glyph glyph-name="grave" unicode="`" horiz-adv-x="104" 
d="M45 672l-42 82h91l25 -82h-74z" />
    <glyph glyph-name="a" unicode="a" horiz-adv-x="205" 
d="M76 149q-35 0 -50.5 24.5t-15.5 64.5v310q0 38 17.5 61.5t51.5 23.5q14 0 22 -4t14 -9l2 10h74v-416h14v-65h-129zM115 547q0 21 -14 21q-8 0 -10.5 -6.5t-2.5 -14.5v-309q0 -8 2.5 -14t10.5 -6q7 0 10.5 6t3.5 14v309zM-8 0v53h225v-53h-225zM-8 779v53h225v-53h-225z
" />
    <glyph glyph-name="b" unicode="b" 
d="M195 234q0 -18 -3.5 -34t-11 -28.5t-19.5 -20t-30 -7.5t-27 5t-14 10l-2 -11h-75v581h78v-108q5 5 14.5 8.5t21.5 3.5q36 0 52 -22.5t16 -62.5v-314zM118 546q0 21 -13 21q-14 0 -14 -21v-312q0 -9 3.5 -15t10.5 -6q13 0 13 21v312zM-8 0v53h224v-53h-224zM-8 779v53h224
v-53h-224z" />
    <glyph glyph-name="c" unicode="c" horiz-adv-x="205" 
d="M195 245q-2 -45 -26 -72.5t-65 -27.5q-45 0 -68.5 28.5t-23.5 74.5v287q0 45 26 72t66 27q44 0 67.5 -27t23.5 -72v-98h-78v110q0 21 -13 21q-8 0 -11 -6t-3 -15v-312q0 -9 3.5 -15t10.5 -6t10 6t3 15v103h78v-93zM-21 0v53h249v-53h-249zM-21 779v53h249v-53h-249z" />
    <glyph glyph-name="d" unicode="d" 
d="M118 148v11q-5 -5 -14.5 -10t-24.5 -5q-35 0 -50.5 25t-15.5 65v313q0 40 18.5 63t50.5 23q12 0 21.5 -4t14.5 -9v109h77v-581h-77zM118 546q0 21 -13 21q-14 0 -14 -21v-313q0 -20 14 -20q7 0 10 6t3 14v313zM-31 0v53h271v-53h-271zM-31 779v53h271v-53h-271z" />
    <glyph glyph-name="e" unicode="e" 
d="M195 240q-2 -41 -25 -68t-65 -27q-45 0 -68.5 29t-23.5 74v287q0 43 25 71t67 28q45 0 67.5 -27.5t22.5 -71.5v-174h-104v-126q0 -8 3 -14.5t11 -6.5q7 0 10 6.5t3 14.5v87h77v-82zM118 547q0 21 -13 21q-14 0 -14 -21v-120h27v120zM-32 0v53h272v-53h-272zM-32 779v53
h272v-53h-272z" />
    <glyph glyph-name="f" unicode="f" horiz-adv-x="151" 
d="M134 663q-17 0 -22 -8t-5 -25v-43h33v-66h-33v-372h-76v372h-28v66h28v36q0 54 24 80t69 26h35v-66h-25zM-8 0v53h173v-53h-173zM-8 779v53h173v-53h-173z" />
    <glyph glyph-name="g" unicode="g" 
d="M195 203q0 -44 -22 -73t-68 -29q-45 0 -69 27t-24 70v31l79 -16v-23q0 -8 3 -14t11 -6q13 0 13 20v62q-12 -9 -37 -9q-38 0 -53 27t-15 69v202q0 92 75 92q14 0 23 -3.5t14 -8.5l1 9h69v-427zM118 547q0 21 -13 21q-8 0 -11 -6t-3 -15v-214q0 -9 3 -15t11 -6q7 0 10 6
t3 15v214zM-8 0v53h224v-53h-224zM-8 779v53h224v-53h-224z" />
    <glyph glyph-name="h" unicode="h" 
d="M118 148v398q0 21 -13 21q-14 0 -14 -21v-398h-78v581h78v-109q4 4 13 8t23 4q39 0 53.5 -22t14.5 -62v-400h-77zM-20 0v53h248v-53h-248zM-20 779v53h248v-53h-248z" />
    <glyph glyph-name="i" unicode="i" horiz-adv-x="104" 
d="M13 148v482h77v-482h-77zM13 730h76v-72h-76v72zM-20 0v53h149v-53h-149zM-20 779v53h149v-53h-149z" />
    <glyph glyph-name="j" unicode="j" horiz-adv-x="104" 
d="M27 97l-60 49l46 59v426h77v-446zM13 730h76v-72h-76v72zM-8 0v53h125v-53h-125zM-8 779v53h125v-53h-125z" />
    <glyph glyph-name="k" unicode="k" horiz-adv-x="219" 
d="M140 148l-49 142v-142h-77v581h77v-307l53 207h79l-75 -275l74 -206h-82zM-8 0v53h224v-53h-224zM-8 779v53h224v-53h-224z" />
    <glyph glyph-name="l" unicode="l" horiz-adv-x="104" 
d="M13 149v581h77v-581h-77zM-8 0v53h126v-53h-126zM-8 779v53h126v-53h-126z" />
    <glyph glyph-name="m" unicode="m" horiz-adv-x="314" 
d="M223 148v398q0 21 -14 21t-14 -21v-398h-76v398q0 21 -15 21q-13 0 -13 -21v-398h-77v481h75l2 -15q5 7 15.5 12.5t24.5 5.5q20 0 31.5 -7t16.5 -15q9 10 22.5 16t31.5 6q36 0 51 -23.5t15 -61.5v-399h-76zM-8 0v53h335v-53h-335zM-8 779v53h335v-53h-335z" />
    <glyph glyph-name="n" unicode="n" 
d="M118 149v398q0 21 -13 21q-14 0 -14 -21v-398h-78v481h77l1 -9q5 5 14.5 8.5t21.5 3.5q38 0 53 -26.5t15 -64.5v-393h-77zM-20 0v53h248v-53h-248zM-20 779v53h248v-53h-248z" />
    <glyph glyph-name="o" unicode="o" 
d="M118 543q0 21 -13 21q-8 0 -11 -6t-3 -15v-312q0 -9 3.5 -15t10.5 -6t10 6t3 15v312zM-20 0v53h248v-53h-248zM-20 779v53h248v-53h-248zM194 244q0 -46 -24 -74.5t-66 -28.5q-45 0 -68 28.5t-23 74.5v287q0 45 25.5 72t65.5 27h104v-59h-20q6 -18 6 -40v-287z" />
    <glyph glyph-name="p" unicode="p" 
d="M195 271q0 -38 -15 -63.5t-49 -25.5q-15 0 -25 4.5t-15 9.5v-91h-78v525h74l3 -10q5 5 13.5 9t23.5 4q38 0 53 -24t15 -60v-278zM118 547q0 9 -2.5 15t-10.5 6t-11 -6.5t-3 -14.5v-276q0 -8 3.5 -14t10.5 -6t10 6t3 14v276zM-20 0v53h248v-53h-248zM-20 779v53h248v-53
h-248z" />
    <glyph glyph-name="q" unicode="q" 
d="M118 105v91q-5 -5 -14.5 -9.5t-24.5 -4.5q-35 0 -50.5 24.5t-15.5 64.5v278q0 38 17.5 61.5t51.5 23.5q14 0 22.5 -3.5t13.5 -8.5l2 9h75v-526h-77zM118 548q0 21 -13 21q-8 0 -11 -6.5t-3 -14.5v-277q0 -8 3 -14t11 -6q7 0 10 6t3 14v277zM-8 0v53h224v-53h-224zM-8 779
v53h224v-53h-224z" />
    <glyph glyph-name="r" unicode="r" horiz-adv-x="154" 
d="M121 550l-12 12q-2 2 -4.5 4t-7.5 2q-7 0 -7 -13v-407h-77v481h75l1 -8q9 11 29 11q12 0 21.5 -6.5t21.5 -22.5zM-8 0v53h176v-53h-176zM-8 779v53h176v-53h-176z" />
    <glyph glyph-name="s" unicode="s" horiz-adv-x="203" 
d="M192 248q0 -43 -21 -73t-69 -30q-41 0 -66.5 26t-25.5 68v99h77v-103q0 -7 3.5 -14t11.5 -7q7 0 10 6t3 15v86q0 12 -9 20t-24 17q-29 19 -50.5 42t-21.5 58v80q0 40 24 68t68 28q45 0 67.5 -28.5t22.5 -67.5v-88h-77v98q0 20 -14 20t-14 -20v-82q0 -14 9 -22t29 -19
q10 -6 22 -14.5t22 -20t16.5 -25.5t6.5 -32v-85zM-8 0v53h224v-53h-224zM-8 779v53h224v-53h-224z" />
    <glyph glyph-name="t" unicode="t" horiz-adv-x="147" 
d="M118 148q-47 0 -68.5 25.5t-21.5 80.5v310h-27v66h27v87h77v-87h41v-66h-41v-317q0 -15 4 -24.5t19 -9.5h18v-65h-28zM-8 0v53h169v-53h-169zM-8 779v53h169v-53h-169z" />
    <glyph glyph-name="u" unicode="u" 
d="M118 148v9q-5 -5 -15 -9t-24 -4q-35 0 -50.5 23.5t-15.5 65.5v396h78v-397q0 -19 14 -19q13 0 13 19v397h77v-481h-77zM-8 0v53h224v-53h-224zM-8 779v53h224v-53h-224z" />
    <glyph glyph-name="v" unicode="v" horiz-adv-x="211" 
d="M64 149l-66 482h78l30 -348l27 348h78l-62 -482h-85zM-8 0v53h231v-53h-231zM-8 779v53h231v-53h-231z" />
    <glyph glyph-name="w" unicode="w" horiz-adv-x="337" 
d="M206 148l-36 339l-37 -339h-73l-58 482h78l17 -351l41 351h61l42 -350l14 350h79l-53 -482h-75zM-8 0v53h358v-53h-358zM-8 779v53h358v-53h-358z" />
    <glyph glyph-name="x" unicode="x" horiz-adv-x="211" 
d="M161 392l47 -244h-78l-25 170l-26 -170h-79l52 244l-50 238h80l24 -186l24 186h79zM-8 0v53h231v-53h-231zM-8 779v53h231v-53h-231z" />
    <glyph glyph-name="y" unicode="y" horiz-adv-x="212" 
d="M46 105l25 146l-77 380h79l34 -244l32 244h77l-101 -526h-69zM-8 0v53h232v-53h-232zM-8 779v53h232v-53h-232z" />
    <glyph glyph-name="z" unicode="z" horiz-adv-x="165" 
d="M10 199l70 365h-70v66h145v-53l-72 -364h72v-65h-145v51zM-8 0v53h185v-53h-185zM-8 779v53h185v-53h-185z" />
    <glyph glyph-name="braceleft" unicode="{" horiz-adv-x="1099" 
d="M593 416q0 -21 -14.5 -35.5t-35.5 -14.5t-35.5 14.5t-14.5 35.5t14.5 35.5t35.5 14.5t35.5 -14.5t14.5 -35.5zM633 416q0 37 -26 63t-64 26q-37 0 -63.5 -26t-26.5 -63q0 -38 26.5 -64t63.5 -26q38 0 64 26t26 64zM1134 0h-544q-20 0 -32.5 9t-19.5 23.5t-10 33t-3 38.5
t2 38t4 33q3 17 7 33l-52 -44q11 0 18.5 -9.5t7.5 -19.5q0 -13 -12.5 -23t-27.5 -10q-20 0 -25.5 19t-5.5 45v18.5t1 14.5q1 7 2 12q-53 13 -88.5 32.5t-57.5 40t-32.5 40.5t-13.5 34l-19 -20l-233 78l232 76l20 -19q3 14 13 33.5t31.5 40.5t57.5 40t90 33q-1 6 -2 13
q-1 6 -1 14v19q0 27 5.5 45.5t25.5 18.5q15 0 27.5 -10t12.5 -23q0 -10 -7.5 -19.5t-18.5 -9.5l52 -44q-4 14 -7 32q-2 14 -4 33t-2 39q0 19 3 38t10 33.5t19.5 23.5t32.5 9h544v-53h-490q-19 -2 -33 -11q-12 -8 -22 -23t-10 -44q0 -39 19 -76t42 -72.5t42 -69.5t19 -67
t-19 -67.5t-42 -70.5t-42 -73t-19 -75q0 -28 10 -43t22 -23q14 -9 33 -11h490v-53zM284 441q12 15 31 15q8 0 14.5 -2.5t11.5 -6.5q15 7 31.5 18.5t29.5 26t21.5 31t8.5 34.5q-41 -11 -74 -26q-28 -13 -51 -30.5t-23 -39.5v-20zM284 371q0 -22 23 -39.5t51 -30.5
q33 -15 74 -26q0 18 -8.5 34.5t-21.5 31t-29.5 26t-31.5 18.5q-5 -4 -11.5 -6.5t-14.5 -2.5q-19 0 -31 15v-20z" />
    <glyph glyph-name="bar" unicode="|" horiz-adv-x="893" 
d="M970 779h-554q-75 0 -141.5 -28.5t-115.5 -78t-77.5 -115.5t-28.5 -141t28.5 -141t77.5 -115.5t115 -78t141 -28.5h555v-53h-554q-86 0 -162 32.5t-132.5 89t-89 132.5t-32.5 162t33 161.5t90 132t132.5 89.5t159.5 33h555v-53zM181 516q11 0 19 -8t8 -19v-152
q0 -11 -8 -19t-19 -8t-19 8t-8 19v152q0 11 8 19t19 8zM289 592q11 0 19 -8t8 -19v-304q0 -11 -8 -19t-19 -8t-19 8t-8 19v304q0 11 8 19t19 8zM392 685q11 0 19 -8t8 -19v-484q0 -11 -8 -19t-19 -8t-19 8t-8 19v484q0 11 8 19t19 8z" />
    <glyph glyph-name="braceright" unicode="}" horiz-adv-x="1099" 
d="M498 416q0 21 14.5 35.5t35.5 14.5t35.5 -14.5t14.5 -35.5t-14.5 -35.5t-35.5 -14.5t-35.5 14.5t-14.5 35.5zM458 416q0 -38 26 -64t64 -26q37 0 63.5 26t26.5 64q0 37 -26.5 63t-63.5 26q-38 0 -64 -26t-26 -63zM-43 53h490q18 2 32 11q12 8 22.5 23t10.5 43
q0 38 -19 75t-42 73t-42 70.5t-19 67.5t19 67t42 69.5t42 72.5t19 76q0 29 -10.5 44t-22.5 23q-14 9 -32 11h-490v53h544q19 0 32 -9t20 -23.5t10 -33.5t3 -38q0 -20 -2.5 -39t-4.5 -33q-3 -18 -6 -32l52 44q-11 0 -18.5 9.5t-7.5 19.5q0 13 12.5 23t27.5 10
q20 0 25.5 -18.5t5.5 -45.5q0 -11 -0.5 -19t-1.5 -14q-1 -7 -1 -13q54 -14 90 -33t57.5 -40t31.5 -40.5t13 -33.5l20 19l232 -76l-233 -78l-19 20q-3 -14 -13.5 -34t-32.5 -40.5t-57.5 -40t-88.5 -32.5q0 -5 1 -12q1 -6 1.5 -14.5t0.5 -18.5q0 -26 -5.5 -45t-25.5 -19
q-15 0 -27.5 10t-12.5 23q0 10 7.5 19.5t18.5 9.5l-52 44q3 -16 6 -33q2 -15 4.5 -33t2.5 -38t-3 -38.5t-10 -33t-20 -23.5t-32 -9h-544v53zM807 461q0 22 -23 39.5t-51 30.5q-33 15 -74 26q0 -18 8.5 -34.5t21.5 -31t29.5 -26t31.5 -18.5q5 4 11.5 6.5t14.5 2.5
q19 0 31 -15v20zM807 391q-12 -15 -31 -15q-8 0 -14.5 2.5t-11.5 6.5q-15 -7 -31.5 -18.5t-29.5 -26t-21.5 -31t-8.5 -34.5q41 11 74 26q28 13 51 30.5t23 39.5v20z" />
    <glyph glyph-name="asciitilde" unicode="~" horiz-adv-x="203" 
d="M12 431q15 34 50 34q11 0 21.5 -4t21 -9.5t21 -9.5t21.5 -4q18 0 35 29l14 -66q-23 -35 -50 -35q-11 0 -21.5 4.5t-20.5 9.5t-21 9.5t-23 4.5q-22 0 -34 -29zM-9 0v53h226v-53h-226zM-9 779v53h226v-53h-226z" />
    <glyph glyph-name="exclamdown" unicode="&#xa1;" horiz-adv-x="104" 
d="M13 586h77v-481h-77v481zM13 653v76h76v-76h-76zM-8 0v53h126v-53h-126zM-8 779v53h126v-53h-126z" />
    <glyph glyph-name="cent" unicode="&#xa2;" 
d="M65 665h77v-38q26 -10 39.5 -33.5t13.5 -58.5v-51h-78v64q0 21 -13 21q-8 0 -11 -6.5t-3 -14.5v-313q0 -20 14 -20q13 0 13 20v58h78v-47q0 -34 -14.5 -58t-38.5 -35v-40h-77v40q-26 11 -39.5 36t-13.5 60v286q0 33 14.5 56.5t38.5 34.5v39zM-8 0v53h224v-53h-224z
M-8 779v53h224v-53h-224z" />
    <glyph glyph-name="sterling" unicode="&#xa3;" horiz-adv-x="234" 
d="M38 105v222h-26v66h26v248q0 45 20.5 68t70.5 23t70 -24.5t20 -66.5v-102h-76v102q0 26 -14 26q-9 0 -11.5 -6t-2.5 -20v-248h104v-66h-104v-157h104v-65h-181zM-8 0v53h257v-53h-257zM-8 779v53h257v-53h-257z" />
    <glyph glyph-name="currency" unicode="&#xa4;" horiz-adv-x="219" 
d="M122 579q0 20 -13 20q-8 0 -11 -6t-3 -14v-317q0 -20 15 -20q12 0 12 20v317zM176 698l54 -54l-37 -38l1 -3q6 -17 6 -38v-289q0 -12 -2 -23.5t-5 -21.5l37 -37l-54 -54l-38 37q-11 -4 -28 -4q-20 0 -32 4l-37 -37l-54 54l36 37q-2 10 -4 21.5t-2 23.5v289q0 10 1 20
t5 21l-36 38l54 54l36 -38q17 5 30 5q17 0 32 -5zM-8 0v53h240v-53h-240zM-8 779v53h240v-53h-240z" />
    <glyph glyph-name="yen" unicode="&#xa5;" horiz-adv-x="240" 
d="M186 430h19v-66h-37l-5 -27h42v-66h-47v-166h-76v166h-46v66h42l-7 27h-35v66h18l-54 299h85l36 -297q1 5 2.5 29t5 63t9.5 91t15 114h86zM-8 0v53h263v-53h-263zM-8 779v53h263v-53h-263z" />
    <glyph glyph-name="brokenbar" unicode="&#xa6;" horiz-adv-x="104" 
d="M13 729h77v-276h-77v276zM13 381h77v-276h-77v276zM-8 0v53h129v-53h-129zM-8 779v53h129v-53h-129z" />
    <glyph glyph-name="section" unicode="&#xa7;" 
d="M194 434q0 -32 -5.5 -53.5t-16.5 -35.5q10 -11 16 -25t6 -31v-85q0 -43 -20.5 -72.5t-68.5 -29.5q-41 0 -66.5 26t-25.5 67v55h77v-59q0 -7 3.5 -13.5t11.5 -6.5q7 0 10 6t3 14v86q0 22 -16.5 34t-36 23.5t-36 28t-16.5 48.5q0 30 7 49.5t20 32.5q-12 13 -19.5 29.5
t-7.5 37.5v79q0 40 24 68t68 28q45 0 67 -28.5t22 -67.5v-52h-76v62q0 20 -14 20t-14 -20v-82q0 -19 16 -30t35.5 -23t36 -29.5t16.5 -50.5zM90 423q0 -11 5.5 -18.5t16.5 -14.5q3 2 4.5 8.5t1.5 24.5q0 9 -5.5 15.5t-15.5 13.5q-4 -3 -5.5 -9t-1.5 -20zM-8 0v53h231v-53
h-231zM-8 779v53h231v-53h-231z" />
    <glyph glyph-name="dieresis" unicode="&#xa8;" horiz-adv-x="210" 
d="M42 749h78v-77h-78v77zM147 749h78v-77h-78v77z" />
    <glyph glyph-name="copyright" unicode="&#xa9;" horiz-adv-x="472" 
d="M37 832h395v-832h-395v832zM90 53h288v726h-288v-726zM328 292q-2 -45 -26 -72.5t-65 -27.5q-45 0 -68.5 28.5t-23.5 74.5v235q0 45 26 72t66 27q44 0 67.5 -27t23.5 -72v-75h-78v87q0 21 -13 21q-8 0 -11 -6t-3 -15v-260q0 -9 3.5 -15t10.5 -6t10 6t3 15v79h78v-69z" />
    <glyph glyph-name="ordfeminine" unicode="&#xaa;" horiz-adv-x="192" 
d="M111 424l-2 9q-5 -5 -12 -9t-21 -4q-20 0 -33 7.5t-20.5 20.5t-10 31t-2.5 40q0 41 13.5 67t49.5 26q16 0 23.5 -3.5t12.5 -7.5v47q0 21 -14 21q-12 0 -12 -21v-20h-73v15q0 40 23 64t62 24q43 0 64.5 -25t21.5 -70v-212h-70zM109 532q0 17 -13 17t-13 -17v-26
q0 -8 3 -14t10 -6q6 0 9.5 6t3.5 14v26zM77 387h44v-42h-44v42zM-8 0v53h214v-53h-214zM-8 779v53h214v-53h-214z" />
    <glyph glyph-name="guillemotleft" unicode="&#xab;" horiz-adv-x="247" 
d="M107 528v-67l-53 -45l53 -46v-67l-95 75v75zM231 528v-67l-54 -45l54 -46v-67l-95 75v75zM-8 0v53h269v-53h-269zM-8 779v53h269v-53h-269z" />
    <glyph glyph-name="logicalnot" unicode="&#xac;" horiz-adv-x="905" 
d="M-85 832h555q84 0 159.5 -33t132.5 -89.5t90 -132t33 -161.5t-32.5 -162t-89 -132.5t-132.5 -89t-162 -32.5h-554v53h555q75 0 141 28.5t115 78t77.5 115.5t28.5 141t-28.5 141t-77.5 115.5t-115.5 78t-141.5 28.5h-554v53zM704 516q11 0 19 -8t8 -19v-152q0 -11 -8 -19
t-19 -8t-19 8t-8 19v152q0 11 8 19t19 8zM596 592q11 0 19 -8t8 -19v-304q0 -11 -8 -19t-19 -8t-19 8t-8 19v304q0 11 8 19t19 8zM493 685q11 0 19 -8t8 -19v-484q0 -11 -8 -19t-19 -8t-19 8t-8 19v484q0 11 8 19t19 8z" />
    <glyph glyph-name="registered" unicode="&#xae;" horiz-adv-x="468" 
d="M90 53h288v726h-288v-726zM37 832h395v-832h-395v832zM334 194h-81l-32 163v-163h-77v436h89q45 0 69 -20.5t24 -60.5v-111q0 -29 -9.5 -47t-25.5 -29zM249 549q0 16 -12 16h-16v-148h15q13 0 13 23v109z" />
    <glyph glyph-name="macron" unicode="&#xaf;" horiz-adv-x="131" 
d="M10 730h145v-42h-145v42z" />
    <glyph glyph-name="degree" unicode="&#xb0;" horiz-adv-x="208" 
d="M-9 0v53h231v-53h-231zM-9 779v53h231v-53h-231zM28 648q0 35 24.5 58.5t58.5 23.5t58 -23.5t24 -58.5t-24 -59t-58 -24q-17 0 -32 6.5t-26.5 17.5t-18 26t-6.5 33zM78 648q0 -14 9.5 -23.5t22.5 -9.5q14 0 23 9.5t9 23.5t-9 23t-23 9q-13 0 -22.5 -9t-9.5 -23z" />
    <glyph glyph-name="plusminus" unicode="&#xb1;" horiz-adv-x="205" 
d="M13 383v65h57v68h64v-68h56v-65h-56v-68h-64v68h-57zM-8 0v53h230v-53h-230zM-8 779v53h230v-53h-230zM38 283h123v-69h-123v69z" />
    <glyph glyph-name="twosuperior" unicode="&#xb2;" horiz-adv-x="203" 
d="M121 779q68 -7 70 -86q-2 -37 -39 -77q-37 -38 -37 -41h74v-62h-159v54q87 93 90 123v9q0 8 -3 13.5t-12 5.5q-8 0 -11 -5.5t-3 -13.5v-18h-74q0 89 71 98h-96v53h209v-53h-80zM-8 0v53h209v-53h-209z" />
    <glyph glyph-name="threesuperior" unicode="&#xb3;" horiz-adv-x="206" 
d="M112 779q78 -5 78 -79q0 -17 -8.5 -30.5t-23.5 -26.5q10 -4 21 -15.5t11 -37.5q0 -15 -5 -29.5t-14.5 -26t-25 -19t-36.5 -7.5q-40 0 -65 23t-27 62h74q0 -6 2 -13t11 -7q10 0 11.5 7t1.5 18t-2 16t-13 5v53q11 0 13 3.5t2 11.5q0 17 -2.5 23t-10.5 6q-9 0 -11 -6.5
t-2 -17.5h-74q0 45 20 65t58 22h-103v53h230v-53h-110zM-8 0v53h230v-53h-230z" />
    <glyph glyph-name="acute" unicode="&#xb4;" horiz-adv-x="103" 
d="M38 672l25 82h91l-42 -82h-74z" />
    <glyph glyph-name="mu" unicode="&#xb5;" 
d="M195 269q0 -39 -26 -62.5t-64 -23.5h-6t-9 1v-79h-77v526h78v-363q0 -19 14 -19q13 0 13 19v363h77v-362zM-8 0v53h231v-53h-231zM-8 779v53h231v-53h-231z" />
    <glyph glyph-name="paragraph" unicode="&#xb6;" horiz-adv-x="313" 
d="M195 105h-77v256h-20q-42 0 -63.5 23t-21.5 60v202q0 41 24 61.5t69 20.5h192v-623h-76v558h-27v-558zM118 427v236h-16q-11 0 -11 -17v-202q0 -17 11 -17h16zM-8 0v53h334v-53h-334zM-8 779v53h334v-53h-334z" />
    <glyph glyph-name="periodcentered" unicode="&#xb7;" horiz-adv-x="84" 
d="M17 444h51v-52h-51v52zM-8 0v53h110v-53h-110zM-8 779v53h110v-53h-110z" />
    <glyph glyph-name="cedilla" unicode="&#xb8;" horiz-adv-x="136" 
d="M131 25l-40 -92h-91l57 92h74z" />
    <glyph glyph-name="onesuperior" unicode="&#xb9;" horiz-adv-x="146" 
d="M142 779v-263h-73v167l-16 -22l-46 45l67 73h-82v53h171v-53h-21zM-8 0v53h171v-53h-171z" />
    <glyph glyph-name="ordmasculine" unicode="&#xba;" horiz-adv-x="197" 
d="M185 521q0 -44 -23.5 -71.5t-62.5 -27.5q-42 0 -64.5 27t-22.5 72v116q0 44 24.5 69.5t62.5 25.5q40 0 63 -25.5t23 -69.5v-116zM112 649q0 21 -14 21q-7 0 -10 -6t-3 -15v-141q0 -19 14 -19q13 0 13 19v141zM-8 0v53h219v-53h-219zM-8 779v53h219v-53h-219zM77 387h44
v-42h-44v42z" />
    <glyph glyph-name="guillemotright" unicode="&#xbb;" horiz-adv-x="249" 
d="M146.007 528v-67l52.9961 -45l-52.9961 -46v-67l94.9941 75v75zM22.0137 528v-67l53.9971 -45l-53.9971 -46v-67l94.9941 75v75zM261 0v53h-268.984v-53h268.984zM261 779v53h-268.984v-53h268.984z" />
    <glyph glyph-name="onequarter" unicode="&#xbc;" horiz-adv-x="227" 
d="M52 418l165 45v-45l-165 -45v45zM99 466v167l-15 -23l-47 45l68 74h67v-263h-73zM184 175v-70h-73v70h-97v48l79 147h91v-137h23v-58h-23zM111 304l-38 -71h38v71zM-8 0v53h249v-53h-249zM-8 779v53h249v-53h-249z" />
    <glyph glyph-name="onehalf" unicode="&#xbd;" horiz-adv-x="210" 
d="M22 418l165 45v-45l-165 -45v45zM30 105v55q88 95 89 123v7q0 9 -2.5 14.5t-12.5 5.5q-8 0 -10.5 -6t-2.5 -14v-17h-75q0 97 88 99q86 0 86 -88q0 -36 -39 -76q-36 -39 -36 -41h73v-62h-158zM69 466v167l-16 -23l-46 45l67 74h68v-263h-73zM-8 0v53h231v-53h-231zM-8 779
v53h231v-53h-231z" />
    <glyph glyph-name="threequarters" unicode="&#xbe;" horiz-adv-x="218" 
d="M22 411l164 47v-45l-164 -46v44zM189 544q0 -14 -5 -28.5t-14.5 -26.5t-25 -19.5t-36.5 -7.5q-38 0 -64.5 23.5t-27.5 61.5h74q0 -5 2 -12t11 -7q10 0 11.5 7t1.5 17q0 11 -2 16t-13 5v54q8 0 11.5 2.5t3.5 12.5q0 16 -2.5 22.5t-10.5 6.5q-9 0 -11 -6.5t-2 -17.5h-74
q0 46 22 66t65 20q86 0 86 -79q0 -18 -8.5 -30.5t-23.5 -26.5q10 -4 21 -15.5t11 -37.5zM183 174v-69h-72v69h-98v48l79 148h91v-137h23v-59h-23zM111 303l-39 -70h39v70zM-8 0v53h242v-53h-242zM-8 779v53h242v-53h-242z" />
    <glyph glyph-name="questiondown" unicode="&#xbf;" horiz-adv-x="270" 
d="M71 399q0 26 13.5 40t28.5 25q13 9 21.5 17.5t8.5 19.5v83h76v-89q0 -32 -14.5 -47t-30.5 -24q-11 -6 -18 -13t-7 -18v-203q0 -13 1.5 -19.5t11.5 -6.5q14 0 14 26v161h77v-161q0 -51 -24.5 -71t-66.5 -20q-43 0 -67 21.5t-24 69.5v209zM219 650h-76v76h76v-76zM268 831
v-53h-226v53h226zM268 52v-53h-226v53h226z" />
    <glyph glyph-name="Agrave" unicode="&#xc0;" horiz-adv-x="204" 
d="M115 293h-28v-188h-78v528q0 46 26 72.5t67 26.5q42 0 66 -26.5t24 -72.5v-528h-77v188zM216 832v-53h-224v53h79l-42 82h91l25 -82h71zM-8 0v53h224v-53h-224zM87 358h28v288q0 21 -13 21q-9 0 -12 -6.5t-3 -14.5v-288z" />
    <glyph glyph-name="Aacute" unicode="&#xc1;" horiz-adv-x="204" 
d="M115 293h-28v-188h-78v528q0 46 26 72.5t67 26.5q42 0 66 -26.5t24 -72.5v-528h-77v188zM216 832v-53h-224v53h75l25 82h91l-42 -82h75zM-8 0v53h224v-53h-224zM87 358h28v288q0 21 -13 21q-9 0 -12 -6.5t-3 -14.5v-288z" />
    <glyph glyph-name="Acircumflex" unicode="&#xc2;" horiz-adv-x="204" 
d="M115 293h-28v-188h-78v528q0 46 26 72.5t67 26.5q42 0 66 -26.5t24 -72.5v-528h-77v188zM191 832h25v-53h-224v53h20l52 77h75zM-8 0v53h224v-53h-224zM87 358h28v288q0 21 -13 21q-9 0 -12 -6.5t-3 -14.5v-288zM73 832h57l-29 43z" />
    <glyph glyph-name="Atilde" unicode="&#xc3;" horiz-adv-x="204" 
d="M115 293h-28v-188h-78v528q0 46 26 72.5t67 26.5q42 0 66 -26.5t24 -72.5v-528h-77v188zM87 358h28v288q0 21 -13 21q-9 0 -12 -6.5t-3 -14.5v-288zM-20 0v53h236v-53h-236zM-20 779v53h236v-53h-236zM194 922q-8 -78 -57 -78q-17 0 -33.5 8t-33.5 8q-13 0 -13 -16h-48
q10 78 55 78q17 0 32.5 -8.5t33.5 -8.5q13 0 16 17h48z" />
    <glyph glyph-name="Adieresis" unicode="&#xc4;" horiz-adv-x="204" 
d="M115 293h-28v-188h-78v528q0 46 26 72.5t67 26.5q42 0 66 -26.5t24 -72.5v-528h-77v188zM-8 779v53h17v77h78v-77h27v77h78v-77h24v-53h-224zM-8 0v53h224v-53h-224zM87 358h28v288q0 21 -13 21q-9 0 -12 -6.5t-3 -14.5v-288z" />
    <glyph glyph-name="Aring" unicode="&#xc5;" horiz-adv-x="204" 
d="M115 293h-28v-188h-78v528q0 46 26 72.5t67 26.5q42 0 66 -26.5t24 -72.5v-528h-77v188zM20 867q0 35 24.5 58.5t58.5 23.5t58 -23.5t24 -58.5q0 -19 -8 -35h39v-53h-224v53h35q-7 14 -7 35zM-8 0v53h224v-53h-224zM87 358h28v288q0 21 -13 21q-9 0 -12 -6.5t-3 -14.5
v-288zM70 867q0 -14 9.5 -23.5t22.5 -9.5q14 0 23 9.5t9 23.5t-9 23t-23 9q-13 0 -22.5 -9t-9.5 -23z" />
    <glyph glyph-name="AE" unicode="&#xc6;" horiz-adv-x="286" 
d="M116 328h-28v-223h-78v529q0 45 26 70t67 25h176v-65h-86v-204h63v-66h-63v-224h86v-65h-163v223zM88 394h28v252q0 21 -14 21q-8 0 -11 -6t-3 -15v-252zM-8 0v53h308v-53h-308zM-8 779v53h308v-53h-308z" />
    <glyph glyph-name="Ccedilla" unicode="&#xc7;" horiz-adv-x="202" 
d="M-8 0v53h45l33 53q-29 11 -43.5 37t-14.5 61v430q0 43 25 71t68 28q47 0 68.5 -29.5t21.5 -69.5v-101h-78v113q0 21 -13 21q-14 0 -14 -21v-450q0 -11 2.5 -18.5t12.5 -7.5q8 0 10 7.5t2 18.5v111h78v-103q0 -31 -12 -56.5t-37 -37.5l-24 -57h94v-53h-224zM-8 779v53h224
v-53h-224z" />
    <glyph glyph-name="Egrave" unicode="&#xc8;" horiz-adv-x="186" 
d="M13 105v624h164v-65h-86v-206h62v-67h-62v-221h86v-65h-164zM198 832v-53h-206v53h69l-42 82h91l25 -82h63zM-8 0v53h206v-53h-206z" />
    <glyph glyph-name="Eacute" unicode="&#xc9;" horiz-adv-x="186" 
d="M13 105v624h164v-65h-86v-206h62v-67h-62v-221h86v-65h-164zM198 832v-53h-206v53h61l25 82h91l-42 -82h71zM-8 0v53h206v-53h-206z" />
    <glyph glyph-name="Ecircumflex" unicode="&#xca;" horiz-adv-x="186" 
d="M13 105v624h164v-65h-86v-206h62v-67h-62v-221h86v-65h-164zM180 832h18v-53h-206v53h9l52 77h75zM-8 0v53h206v-53h-206zM62 832h57l-29 43z" />
    <glyph glyph-name="Edieresis" unicode="&#xcb;" horiz-adv-x="186" 
d="M13 105v624h164v-65h-86v-206h62v-67h-62v-221h86v-65h-164zM-8 779v53h10v77h78v-77h27v77h78v-77h13v-53h-206zM-8 0v53h206v-53h-206z" />
    <glyph glyph-name="Igrave" unicode="&#xcc;" horiz-adv-x="104" 
d="M13 105v624h77v-624h-77zM116 832v-53h-124v53h23l-42 82h91l25 -82h27zM-8 0v53h124v-53h-124z" />
    <glyph glyph-name="Iacute" unicode="&#xcd;" horiz-adv-x="104" 
d="M13 105v624h77v-624h-77zM116 832v-53h-124v53h26l25 82h91l-42 -82h24zM-8 0v53h124v-53h-124z" />
    <glyph glyph-name="Icircumflex" unicode="&#xce;" horiz-adv-x="104" 
d="M13 105v624h77v-624h-77zM142 832h-26v-53h-124v53h-29l52 77h75zM-8 0v53h124v-53h-124zM24 832h57l-29 43z" />
    <glyph glyph-name="Idieresis" unicode="&#xcf;" horiz-adv-x="104" 
d="M13 105v624h77v-624h-77zM-39 909h78v-77h27v77h78v-77h-28v-53h-124v53h-31v77zM-8 0v53h124v-53h-124z" />
    <glyph glyph-name="Eth" unicode="&#xd0;" horiz-adv-x="208" 
d="M195 209q0 -42 -20.5 -73t-71.5 -31h-91v624h92q48 0 69.5 -26.5t21.5 -73.5v-420zM-8 779v53h224v-53h-224zM-8 0v53h224v-53h-224zM117 639q0 25 -16 25h-11v-214h21v-65h-21v-211h10q11 0 14 7t3 18v440z" />
    <glyph glyph-name="Ntilde" unicode="&#xd1;" horiz-adv-x="258" 
d="M165 388v341h77v-624h-71l-80 335v-335h-78v624h73zM-8 0v53h277v-53h-277zM-8 779v53h277v-53h-277zM225 922q-8 -78 -57 -78q-17 0 -33.5 8t-33.5 8q-13 0 -13 -16h-48q10 78 55 78q17 0 32.5 -8.5t33.5 -8.5q13 0 16 17h48z" />
    <glyph glyph-name="Ograve" unicode="&#xd2;" horiz-adv-x="208" 
d="M195 205q0 -46 -24.5 -74.5t-65.5 -28.5q-45 0 -69 28t-24 75v430q0 45 26 72t67 27q42 0 66 -27t24 -72v-430zM216 832v-53h-224v53h74l-42 82h91l25 -82h76zM117 647q0 21 -13 21q-8 0 -11 -6t-3 -15v-456q0 -20 15 -20q12 0 12 20v456zM-8 0v53h224v-53h-224z" />
    <glyph glyph-name="Oacute" unicode="&#xd3;" horiz-adv-x="208" 
d="M195 205q0 -46 -24.5 -74.5t-65.5 -28.5q-45 0 -69 28t-24 75v430q0 45 26 72t67 27q42 0 66 -27t24 -72v-430zM216 832v-53h-224v53h79l25 82h91l-42 -82h71zM117 647q0 21 -13 21q-8 0 -11 -6t-3 -15v-456q0 -20 15 -20q12 0 12 20v456zM-8 0v53h224v-53h-224z" />
    <glyph glyph-name="Ocircumflex" unicode="&#xd4;" horiz-adv-x="208" 
d="M195 205q0 -46 -24.5 -74.5t-65.5 -28.5q-45 0 -69 28t-24 75v430q0 45 26 72t67 27q42 0 66 -27t24 -72v-430zM194 832h22v-53h-224v53h23l52 77h75zM117 647q0 21 -13 21q-8 0 -11 -6t-3 -15v-456q0 -20 15 -20q12 0 12 20v456zM-8 0v53h224v-53h-224zM76 832h57
l-29 43z" />
    <glyph glyph-name="Otilde" unicode="&#xd5;" horiz-adv-x="208" 
d="M195 205q0 -46 -24.5 -74.5t-65.5 -28.5q-45 0 -69 28t-24 75v430q0 45 26 72t67 27q42 0 66 -27t24 -72v-430zM197 906q-6 -60 -38 -74h57v-53h-224v53h20q12 74 55 74q17 0 32.5 -8.5t33.5 -8.5q13 0 16 17h48zM117 647q0 21 -13 21q-8 0 -11 -6t-3 -15v-456
q0 -20 15 -20q12 0 12 20v456zM-8 0v53h224v-53h-224zM73 844q-12 0 -13 -12h58q-11 3 -22.5 7.5t-22.5 4.5z" />
    <glyph glyph-name="Odieresis" unicode="&#xd6;" horiz-adv-x="208" 
d="M195 205q0 -46 -24.5 -74.5t-65.5 -28.5q-45 0 -69 28t-24 75v430q0 45 26 72t67 27q42 0 66 -27t24 -72v-430zM-8 779v53h20v77h78v-77h27v77h78v-77h21v-53h-224zM117 647q0 21 -13 21q-8 0 -11 -6t-3 -15v-456q0 -20 15 -20q12 0 12 20v456zM-8 0v53h224v-53h-224z
" />
    <glyph glyph-name="multiply" unicode="&#xd7;" horiz-adv-x="210" 
d="M64 323l-49 49l42 42l-44 44l48 48l44 -44l42 42l49 -49l-42 -41l44 -45l-48 -48l-45 44zM-8 0v53h219v-53h-219zM-8 779v53h219v-53h-219z" />
    <glyph glyph-name="Oslash" unicode="&#xd8;" horiz-adv-x="227" 
d="M129 648q0 21 -13 21q-8 0 -11 -6t-3 -15v-456q0 -20 15 -20q12 0 12 20v456zM183 768l54 -54l-37 -37q6 -18 6 -41v-430q0 -46 -24 -74.5t-65 -28.5q-9 0 -16.5 1.5t-15.5 3.5l-37 -38l-54 54l36 38q-2 9 -4 20.5t-2 23.5v430q0 45 26 72t67 27q8 0 15 -1t14 -3zM-8 0
v53h252v-53h-252zM-8 779v53h252v-53h-252z" />
    <glyph glyph-name="Ugrave" unicode="&#xd9;" horiz-adv-x="208" 
d="M195 204q0 -19 -5 -37.5t-16.5 -32.5t-28.5 -23t-41 -9q-25 0 -42.5 8.5t-28.5 23t-16 32.5t-5 38v525h78v-538q0 -20 15 -20q7 0 9.5 6t2.5 14v538h78v-525zM216 832v-53h-224v53h80l-42 82h91l25 -82h70zM-8 0v53h224v-53h-224z" />
    <glyph glyph-name="Uacute" unicode="&#xda;" horiz-adv-x="208" 
d="M195 204q0 -19 -5 -37.5t-16.5 -32.5t-28.5 -23t-41 -9q-25 0 -42.5 8.5t-28.5 23t-16 32.5t-5 38v525h78v-538q0 -20 15 -20q7 0 9.5 6t2.5 14v538h78v-525zM216 832v-53h-224v53h75l25 82h91l-42 -82h75zM-8 0v53h224v-53h-224z" />
    <glyph glyph-name="Ucircumflex" unicode="&#xdb;" horiz-adv-x="208" 
d="M195 204q0 -19 -5 -37.5t-16.5 -32.5t-28.5 -23t-41 -9q-25 0 -42.5 8.5t-28.5 23t-16 32.5t-5 38v525h78v-538q0 -20 15 -20q7 0 9.5 6t2.5 14v538h78v-525zM193 832h23v-53h-224v53h22l52 77h75zM-8 0v53h224v-53h-224zM75 832h57l-29 43z" />
    <glyph glyph-name="Udieresis" unicode="&#xdc;" horiz-adv-x="208" 
d="M195 204q0 -19 -5 -37.5t-16.5 -32.5t-28.5 -23t-41 -9q-25 0 -42.5 8.5t-28.5 23t-16 32.5t-5 38v525h78v-538q0 -20 15 -20q7 0 9.5 6t2.5 14v538h78v-525zM-8 779v53h20v77h78v-77h27v77h78v-77h21v-53h-224zM-8 0v53h224v-53h-224z" />
    <glyph glyph-name="Yacute" unicode="&#xdd;" horiz-adv-x="240" 
d="M158 345v-240h-76v239l-82 385h85l36 -290q0 2 1.5 15.5t3.5 34.5t5 46.5t6 52.5q7 62 17 141h85zM251 832v-53h-259v53h87l25 82h91l-42 -82h98zM-8 0v53h259v-53h-259z" />
    <glyph glyph-name="Thorn" unicode="&#xde;" horiz-adv-x="208" 
d="M12 729h78v-101h12q44 0 68.5 -20t24.5 -61v-243q0 -36 -21.5 -58.5t-62.5 -22.5h-21v-118h-78v624zM117 547q0 15 -11 15h-16v-274h16q11 0 11 16v243zM-8 0v53h232v-53h-232zM-8 779v53h232v-53h-232z" />
    <glyph glyph-name="germandbls" unicode="&#xdf;" horiz-adv-x="210" 
d="M105 239q10 0 11.5 7.5t1.5 18.5v163q0 14 -2 19.5t-13 5.5v66q11 0 13 4t2 18v103q0 13 -2 20t-11 7t-11.5 -7.5t-2.5 -19.5v-539h-77v539q0 50 23 71t68 21q91 0 91 -92v-104q0 -20 -12 -35.5t-22 -21.5q10 -4 22 -16.5t12 -38.5v-166q0 -38 -22 -65t-69 -27v69zM-8 0
v53h235v-53h-235zM-8 779v53h235v-53h-235z" />
    <glyph glyph-name="agrave" unicode="&#xe0;" horiz-adv-x="206" 
d="M76 149q-35 0 -50.5 24.5t-15.5 64.5v310q0 38 17.5 61.5t51.5 23.5q14 0 22 -4t14 -9l2 10h74v-416h14v-65h-129zM115 547q0 21 -14 21q-8 0 -10.5 -6.5t-2.5 -14.5v-309q0 -8 2.5 -14t10.5 -6q7 0 10.5 6t3.5 14v309zM-8 0v53h225v-53h-225zM-8 779v53h225v-53h-225z
M71 672l-42 82h91l25 -82h-74z" />
    <glyph glyph-name="aacute" unicode="&#xe1;" horiz-adv-x="206" 
d="M76 149q-35 0 -50.5 24.5t-15.5 64.5v310q0 38 17.5 61.5t51.5 23.5q14 0 22 -4t14 -9l2 10h74v-416h14v-65h-129zM115 547q0 21 -14 21q-8 0 -10.5 -6.5t-2.5 -14.5v-309q0 -8 2.5 -14t10.5 -6q7 0 10.5 6t3.5 14v309zM-8 0v53h225v-53h-225zM-8 779v53h225v-53h-225z
M57 672l25 82h91l-42 -82h-74z" />
    <glyph glyph-name="acircumflex" unicode="&#xe2;" horiz-adv-x="206" 
d="M76 149q-35 0 -50.5 24.5t-15.5 64.5v310q0 38 17.5 61.5t51.5 23.5q14 0 22 -4t14 -9l2 10h74v-416h14v-65h-129zM115 547q0 21 -14 21q-8 0 -10.5 -6.5t-2.5 -14.5v-309q0 -8 2.5 -14t10.5 -6q7 0 10.5 6t3.5 14v309zM-8 0v53h225v-53h-225zM-8 779v53h225v-53h-225z
M191 672h-61l-29 43l-28 -43h-61l52 77h75z" />
    <glyph glyph-name="atilde" unicode="&#xe3;" horiz-adv-x="206" 
d="M76 149q-35 0 -50.5 24.5t-15.5 64.5v310q0 38 17.5 61.5t51.5 23.5q14 0 22 -4t14 -9l2 10h74v-416h14v-65h-129zM115 547q0 21 -14 21q-8 0 -10.5 -6.5t-2.5 -14.5v-309q0 -8 2.5 -14t10.5 -6q7 0 10.5 6t3.5 14v309zM-8 0v53h225v-53h-225zM-8 779v53h225v-53h-225z
M195 750q-8 -78 -57 -78q-17 0 -33.5 8t-33.5 8q-13 0 -13 -16h-48q10 78 55 78q17 0 32.5 -8.5t33.5 -8.5q13 0 16 17h48z" />
    <glyph glyph-name="adieresis" unicode="&#xe4;" horiz-adv-x="206" 
d="M76 149q-35 0 -50.5 24.5t-15.5 64.5v310q0 38 17.5 61.5t51.5 23.5q14 0 22 -4t14 -9l2 10h74v-416h14v-65h-129zM115 547q0 21 -14 21q-8 0 -10.5 -6.5t-2.5 -14.5v-309q0 -8 2.5 -14t10.5 -6q7 0 10.5 6t3.5 14v309zM-8 0v53h225v-53h-225zM-8 779v53h225v-53h-225z
M10 749h78v-77h-78v77zM115 749h78v-77h-78v77z" />
    <glyph glyph-name="aring" unicode="&#xe5;" horiz-adv-x="206" 
d="M76 149q-35 0 -50.5 24.5t-15.5 64.5v310q0 38 17.5 61.5t51.5 23.5q14 0 22 -4t14 -9l2 10h74v-416h14v-65h-129zM19 747q0 17 6 32h-33v53h225v-53h-40q3 -8 5 -16t2 -16q0 -35 -24 -59t-58 -24q-17 0 -32 6.5t-26.5 17.5t-18 26t-6.5 33zM-8 0v53h225v-53h-225z
M115 547q0 21 -14 21q-8 0 -10.5 -6.5t-2.5 -14.5v-309q0 -8 2.5 -14t10.5 -6q7 0 10.5 6t3.5 14v309zM69 747q0 -14 9.5 -23.5t22.5 -9.5q14 0 23 9.5t9 23.5t-9 23t-23 9q-13 0 -22.5 -9t-9.5 -23z" />
    <glyph glyph-name="ae" unicode="&#xe6;" horiz-adv-x="307" 
d="M296 240q-2 -41 -25 -66t-66 -25h-88l-2 10q-5 -5 -12.5 -9.5t-23.5 -4.5q-42 0 -55.5 29t-13.5 74v69q0 42 14.5 70t52.5 28q17 0 25 -3.5t13 -8.5v144q0 21 -15 21q-7 0 -10 -6t-3 -15v-109h-77v103q0 43 24 68t66 25q32 0 55 -15q23 15 51 15q45 0 67.5 -27.5
t22.5 -71.5v-163h-104v-137q0 -8 3 -14.5t11 -6.5t11 6.5t3 14.5v100h76v-95zM220 547q0 21 -15 21q-13 0 -13 -21v-109h28v109zM115 330q0 19 -15 19q-13 0 -13 -19v-95q0 -9 3 -15t10 -6q8 0 11.5 6t3.5 15v95zM-8 0v53h328v-53h-328zM-8 779v53h328v-53h-328z" />
    <glyph glyph-name="ccedilla" unicode="&#xe7;" horiz-adv-x="205" 
d="M195 245q-2 -33 -15.5 -57t-37.5 -35l-36 -83h-91l51 82q-26 11 -40 36t-14 60v287q0 45 26 72t66 27q44 0 67.5 -27t23.5 -72v-98h-78v110q0 21 -13 21q-8 0 -11 -6t-3 -15v-312q0 -9 3.5 -15t10.5 -6t10 6t3 15v103h78v-93zM-8 779v53h224v-53h-224zM-8 0v53h224v-53
h-224z" />
    <glyph glyph-name="egrave" unicode="&#xe8;" 
d="M195 240q-2 -41 -25 -68t-65 -27q-45 0 -68.5 29t-23.5 74v287q0 43 25 71t67 28q45 0 67.5 -27.5t22.5 -71.5v-174h-104v-126q0 -8 3 -14.5t11 -6.5q7 0 10 6.5t3 14.5v87h77v-82zM118 547q0 21 -13 21q-14 0 -14 -21v-120h27v120zM-32 0v53h272v-53h-272zM-32 779v53
h272v-53h-272zM76 672l-42 82h91l25 -82h-74z" />
    <glyph glyph-name="eacute" unicode="&#xe9;" 
d="M195 240q-2 -41 -25 -68t-65 -27q-45 0 -68.5 29t-23.5 74v287q0 43 25 71t67 28q45 0 67.5 -27.5t22.5 -71.5v-174h-104v-126q0 -8 3 -14.5t11 -6.5q7 0 10 6.5t3 14.5v87h77v-82zM118 547q0 21 -13 21q-14 0 -14 -21v-120h27v120zM-32 0v53h272v-53h-272zM-32 779v53
h272v-53h-272zM60 672l25 82h91l-42 -82h-74z" />
    <glyph glyph-name="ecircumflex" unicode="&#xea;" 
d="M195 240q-2 -41 -25 -68t-65 -27q-45 0 -68.5 29t-23.5 74v287q0 43 25 71t67 28q45 0 67.5 -27.5t22.5 -71.5v-174h-104v-126q0 -8 3 -14.5t11 -6.5q7 0 10 6.5t3 14.5v87h77v-82zM118 547q0 21 -13 21q-14 0 -14 -21v-120h27v120zM-32 0v53h272v-53h-272zM-32 779v53
h272v-53h-272zM195 672h-61l-29 43l-28 -43h-61l52 77h75z" />
    <glyph glyph-name="edieresis" unicode="&#xeb;" 
d="M195 240q-2 -41 -25 -68t-65 -27q-45 0 -68.5 29t-23.5 74v287q0 43 25 71t67 28q45 0 67.5 -27.5t22.5 -71.5v-174h-104v-126q0 -8 3 -14.5t11 -6.5q7 0 10 6.5t3 14.5v87h77v-82zM118 547q0 21 -13 21q-14 0 -14 -21v-120h27v120zM-32 0v53h272v-53h-272zM-32 779v53
h272v-53h-272zM14 749h78v-77h-78v77zM119 749h78v-77h-78v77z" />
    <glyph glyph-name="igrave" unicode="&#xec;" horiz-adv-x="104" 
d="M13 148v482h77v-482h-77zM-8 0v53h125v-53h-125zM-8 779v53h125v-53h-125zM18 672l-42 82h91l25 -82h-74z" />
    <glyph glyph-name="iacute" unicode="&#xed;" horiz-adv-x="104" 
d="M13 148v482h77v-482h-77zM-8 0v53h125v-53h-125zM-8 779v53h125v-53h-125zM18 672l25 82h91l-42 -82h-74z" />
    <glyph glyph-name="icircumflex" unicode="&#xee;" horiz-adv-x="104" 
d="M13 148v482h77v-482h-77zM-8 0v53h125v-53h-125zM-8 779v53h125v-53h-125zM142 672h-61l-29 43l-28 -43h-61l52 77h75z" />
    <glyph glyph-name="idieresis" unicode="&#xef;" horiz-adv-x="104" 
d="M13 148v482h77v-482h-77zM-8 0v53h125v-53h-125zM-8 779v53h125v-53h-125zM-40 749h78v-77h-78v77zM65 749h78v-77h-78v77z" />
    <glyph glyph-name="eth" unicode="&#xf0;" horiz-adv-x="225" 
d="M194 585v-347q0 -42 -22.5 -67t-67.5 -25q-91 0 -91 92v206q0 36 15.5 59t47.5 23q11 0 23 -5t19 -10v61l-48 -11v68l48 8v16q0 10 -14 10h-13v66h18q37 0 61 -18t24 -54v-6l32 5v-66zM118 434q0 23 -14 23q-8 0 -10.5 -6.5t-2.5 -16.5v-195q0 -10 2 -17t11 -7t11.5 7.5
t2.5 16.5v195zM-8 0v53h248v-53h-248zM-8 779v53h248v-53h-248z" />
    <glyph glyph-name="ntilde" unicode="&#xf1;" 
d="M118 149v398q0 21 -13 21q-14 0 -14 -21v-398h-78v481h77l1 -9q5 5 14.5 8.5t21.5 3.5q38 0 53 -26.5t15 -64.5v-393h-77zM-20 0v53h248v-53h-248zM-20 779v53h248v-53h-248zM197 750q-8 -78 -57 -78q-17 0 -33.5 8t-33.5 8q-13 0 -13 -16h-48q10 78 55 78
q17 0 32.5 -8.5t33.5 -8.5q13 0 16 17h48z" />
    <glyph glyph-name="ograve" unicode="&#xf2;" 
d="M118 543q0 21 -13 21q-8 0 -11 -6t-3 -15v-312q0 -9 3.5 -15t10.5 -6t10 6t3 15v312zM-20 0v53h248v-53h-248zM-20 779v53h248v-53h-248zM194 244q0 -46 -24 -74.5t-66 -28.5q-45 0 -68 28.5t-23 74.5v287q0 45 25.5 72t65.5 27h104v-59h-20q6 -18 6 -40v-287zM75 672
l-42 82h91l25 -82h-74z" />
    <glyph glyph-name="oacute" unicode="&#xf3;" 
d="M118 543q0 21 -13 21q-8 0 -11 -6t-3 -15v-312q0 -9 3.5 -15t10.5 -6t10 6t3 15v312zM-20 0v53h248v-53h-248zM-20 779v53h248v-53h-248zM194 244q0 -46 -24 -74.5t-66 -28.5q-45 0 -68 28.5t-23 74.5v287q0 45 25.5 72t65.5 27h104v-59h-20q6 -18 6 -40v-287zM65 672
l25 82h91l-42 -82h-74z" />
    <glyph glyph-name="ocircumflex" unicode="&#xf4;" 
d="M118 543q0 21 -13 21q-8 0 -11 -6t-3 -15v-312q0 -9 3.5 -15t10.5 -6t10 6t3 15v312zM-20 0v53h248v-53h-248zM-20 779v53h248v-53h-248zM194 244q0 -46 -24 -74.5t-66 -28.5q-45 0 -68 28.5t-23 74.5v287q0 45 25.5 72t65.5 27h104v-59h-20q6 -18 6 -40v-287zM194 672
h-61l-29 43l-28 -43h-61l52 77h75z" />
    <glyph glyph-name="otilde" unicode="&#xf5;" 
d="M118 543q0 21 -13 21q-8 0 -11 -6t-3 -15v-312q0 -9 3.5 -15t10.5 -6t10 6t3 15v312zM-20 0v53h248v-53h-248zM-20 779v53h248v-53h-248zM194 244q0 -46 -24 -74.5t-66 -28.5q-45 0 -68 28.5t-23 74.5v287q0 45 25.5 72t65.5 27h104v-59h-20q6 -18 6 -40v-287zM197 750
q-8 -78 -57 -78q-17 0 -33.5 8t-33.5 8q-13 0 -13 -16h-48q10 78 55 78q17 0 32.5 -8.5t33.5 -8.5q13 0 16 17h48z" />
    <glyph glyph-name="odieresis" unicode="&#xf6;" 
d="M118 543q0 21 -13 21q-8 0 -11 -6t-3 -15v-312q0 -9 3.5 -15t10.5 -6t10 6t3 15v312zM-20 0v53h248v-53h-248zM-20 779v53h248v-53h-248zM194 244q0 -46 -24 -74.5t-66 -28.5q-45 0 -68 28.5t-23 74.5v287q0 45 25.5 72t65.5 27h104v-59h-20q6 -18 6 -40v-287zM13 749h78
v-77h-78v77zM118 749h78v-77h-78v77z" />
    <glyph glyph-name="divide" unicode="&#xf7;" horiz-adv-x="180" 
d="M-8 0v53h204v-53h-204zM-8 779v53h204v-53h-204zM25 451h123v-69h-123v69zM51 352h76v-76h-76v76zM51 563h76v-76h-76v76z" />
    <glyph glyph-name="oslash" unicode="&#xf8;" horiz-adv-x="208" 
d="M117 587q0 9 -2.5 15t-10.5 6t-11 -6.5t-3 -14.5v-317q0 -20 15 -20q12 0 12 20v317zM171 706l54 -54l-36 -38q2 -9 4 -19t2 -21v-290q0 -46 -24.5 -74.5t-65.5 -28.5q-18 0 -31 4l-38 -37l-54 54l37 37q-3 10 -5 21.5t-2 23.5v290q0 46 26 72.5t67 26.5q8 0 15 -1.5
t15 -3.5zM-8 0v53h224v-53h-224zM-8 779v53h224v-53h-224z" />
    <glyph glyph-name="ugrave" unicode="&#xf9;" 
d="M118 148v9q-5 -5 -15 -9t-24 -4q-35 0 -50.5 23.5t-15.5 65.5v396h78v-397q0 -19 14 -19q13 0 13 19v397h77v-481h-77zM-8 0v53h224v-53h-224zM-8 779v53h224v-53h-224zM74 672l-42 82h91l25 -82h-74z" />
    <glyph glyph-name="uacute" unicode="&#xfa;" 
d="M118 148v9q-5 -5 -15 -9t-24 -4q-35 0 -50.5 23.5t-15.5 65.5v396h78v-397q0 -19 14 -19q13 0 13 19v397h77v-481h-77zM-8 0v53h224v-53h-224zM-8 779v53h224v-53h-224zM60 672l25 82h91l-42 -82h-74z" />
    <glyph glyph-name="ucircumflex" unicode="&#xfb;" 
d="M118 148v9q-5 -5 -15 -9t-24 -4q-35 0 -50.5 23.5t-15.5 65.5v396h78v-397q0 -19 14 -19q13 0 13 19v397h77v-481h-77zM-8 0v53h224v-53h-224zM-8 779v53h224v-53h-224zM194 672h-61l-29 43l-28 -43h-61l52 77h75z" />
    <glyph glyph-name="udieresis" unicode="&#xfc;" 
d="M118 148v9q-5 -5 -15 -9t-24 -4q-35 0 -50.5 23.5t-15.5 65.5v396h78v-397q0 -19 14 -19q13 0 13 19v397h77v-481h-77zM-8 0v53h224v-53h-224zM-8 779v53h224v-53h-224zM13 749h78v-77h-78v77zM118 749h78v-77h-78v77z" />
    <glyph glyph-name="yacute" unicode="&#xfd;" horiz-adv-x="212" 
d="M46 105l25 146l-77 380h79l34 -244l32 244h77l-101 -526h-69zM-8 0v53h232v-53h-232zM-8 779v53h232v-53h-232zM66 672l25 82h91l-42 -82h-74z" />
    <glyph glyph-name="thorn" unicode="&#xfe;" 
d="M195 253q0 -35 -16.5 -55.5t-47.5 -20.5q-15 0 -25 4.5t-15 9.5v-86h-78v624h78v-75q5 4 15 8t25 4q30 0 47 -19.5t17 -56.5v-337zM118 576q0 14 -2.5 19t-10.5 5q-14 0 -14 -24v-306q0 -13 2.5 -18.5t11.5 -5.5t11 6t2 18v306zM-8 0v53h231v-53h-231zM-8 779v53h231v-53
h-231z" />
    <glyph glyph-name="ydieresis" unicode="&#xff;" horiz-adv-x="212" 
d="M46 105l25 146l-77 380h79l34 -244l32 244h77l-101 -526h-69zM-8 0v53h232v-53h-232zM-8 779v53h232v-53h-232zM16 749h78v-77h-78v77zM121 749h78v-77h-78v77z" />
    <glyph glyph-name="OE" unicode="&#x152;" horiz-adv-x="286" 
d="M105 105q-45 0 -68.5 26t-23.5 73v430q0 45 25.5 70t66.5 25h176v-65h-85v-206h63v-67h-63v-221h85v-65h-176zM118 646q0 21 -14 21q-8 0 -10.5 -6t-2.5 -15v-456q0 -20 14 -20q13 0 13 20v456zM-8 0v53h307v-53h-307zM-8 779v53h307v-53h-307z" />
    <glyph glyph-name="oe" unicode="&#x153;" horiz-adv-x="310" 
d="M194 237q0 -8 3.5 -14.5t10.5 -6.5q8 0 11 6.5t3 14.5v75h76v-70q0 -41 -23.5 -68t-66.5 -27q-30 0 -53 15q-10 -7 -23 -11t-28 -4q-45 0 -68 28.5t-23 74.5v287q0 45 25.5 72t65.5 27q15 0 28.5 -4t24.5 -11q23 15 51 15q45 0 67.5 -27.5t22.5 -71.5v-163h-104v-137z
M222 549q0 21 -14 21t-14 -21v-109h28v109zM118 549q0 21 -14 21q-8 0 -10.5 -6t-2.5 -15v-312q0 -9 3 -15t10 -6t10.5 6t3.5 15v312zM-8 0v53h331v-53h-331zM-8 779v53h331v-53h-331z" />
    <glyph glyph-name="Scaron" unicode="&#x160;" horiz-adv-x="202" 
d="M192 204q0 -45 -23.5 -74t-67.5 -29q-45 0 -68.5 29t-23.5 74v96h78v-110q0 -8 3 -14t11 -6q13 0 13 20v144q0 22 -11.5 34.5t-42.5 33.5q-21 14 -36 34t-15 50v148q0 44 25 71.5t68 27.5q44 0 67 -28t23 -71v-101h-78v113q0 21 -13 21q-14 0 -14 -21v-145
q0 -8 2.5 -14.5t9.5 -13t17.5 -14.5t27.5 -19q22 -14 35 -35.5t13 -53.5v-147zM216 832v-53h-224v53h53l-35 82h70l20 -45l20 45h70l-35 -82h61zM-8 0v53h224v-53h-224z" />
    <glyph glyph-name="scaron" unicode="&#x161;" horiz-adv-x="203" 
d="M192 248q0 -43 -21 -73t-69 -30q-41 0 -66.5 26t-25.5 68v99h77v-103q0 -7 3.5 -14t11.5 -7q7 0 10 6t3 15v86q0 12 -9 20t-24 17q-29 19 -50.5 42t-21.5 58v80q0 40 24 68t68 28q45 0 67.5 -28.5t22.5 -67.5v-88h-77v98q0 20 -14 20t-14 -20v-82q0 -14 9 -22t29 -19
q10 -6 22 -14.5t22 -20t16.5 -25.5t6.5 -32v-85zM-8 0v53h224v-53h-224zM-8 779v53h224v-53h-224zM46 672l-35 82h70l20 -45l20 45h70l-35 -82h-110z" />
    <glyph glyph-name="Ydieresis" unicode="&#x178;" horiz-adv-x="240" 
d="M158 345v-240h-76v239l-82 385h85l36 -290q0 2 1.5 15.5t3.5 34.5t5 46.5t6 52.5q7 62 17 141h85zM135 909h78v-77h38v-53h-259v53h38v77h78v-77h27v77zM-8 0v53h259v-53h-259z" />
    <glyph glyph-name="Zcaron" unicode="&#x17d;" horiz-adv-x="196" 
d="M6 105v67l105 492h-105v65h183v-67l-105 -492h105v-65h-183zM209 832v-53h-217v53h58l-35 82h70l20 -45l20 45h70l-35 -82h49zM-8 0v53h217v-53h-217z" />
    <glyph glyph-name="zcaron" unicode="&#x17e;" horiz-adv-x="165" 
d="M10 199l70 365h-70v66h145v-53l-72 -364h72v-65h-145v51zM-8 0v53h185v-53h-185zM-8 779v53h185v-53h-185zM34 672l-35 82h70l20 -45l20 45h70l-35 -82h-110z" />
    <glyph glyph-name="florin" unicode="&#x192;" horiz-adv-x="164" 
d="M121 663q-8 0 -11 -3.5t-3 -14.5v-59h33v-65h-33v-341l-55 -89l-68 31l47 73v326h-28v65h28v50q0 52 22.5 72t64.5 20h41v-65h-38zM-8 0v53h189v-53h-189zM-8 779v53h189v-53h-189z" />
    <glyph glyph-name="circumflex" unicode="&#x2c6;" horiz-adv-x="158" 
d="M189 672h-61l-29 43l-28 -43h-61l52 77h75z" />
    <glyph glyph-name="caron" unicode="&#x2c7;" horiz-adv-x="159" 
d="M46 672l-35 82h70l20 -45l20 45h70l-35 -82h-110z" />
    <glyph glyph-name="breve" unicode="&#x2d8;" horiz-adv-x="163" 
d="M61 768q3 -41 42 -41t42 41h55q-3 -93 -97 -93t-98 93h56z" />
    <glyph glyph-name="dotaccent" unicode="&#x2d9;" horiz-adv-x="84" 
d="M34 747h76v-75h-76v75z" />
    <glyph glyph-name="ring" unicode="&#x2da;" horiz-adv-x="252" 
d="M74 747q0 35 24.5 58.5t58.5 23.5t58 -23.5t24 -58.5t-24 -59t-58 -24q-17 0 -32 6.5t-26.5 17.5t-18 26t-6.5 33zM124 747q0 -14 9.5 -23.5t22.5 -9.5q14 0 23 9.5t9 23.5t-9 23t-23 9q-13 0 -22.5 -9t-9.5 -23z" />
    <glyph glyph-name="ogonek" unicode="&#x2db;" horiz-adv-x="136" 
d="M87 -104h-4q-34 3 -55.5 17.5t-21.5 49.5q0 13 3.5 22.5t8.5 14.5v48h69v-48q-15 0 -15 -14t15 -14v-76z" />
    <glyph glyph-name="tilde" unicode="&#x2dc;" horiz-adv-x="203" 
d="M227 750q-8 -78 -57 -78q-17 0 -33.5 8t-33.5 8q-13 0 -13 -16h-48q10 78 55 78q17 0 32.5 -8.5t33.5 -8.5q13 0 16 17h48z" />
    <glyph glyph-name="hungarumlaut" unicode="&#x2dd;" horiz-adv-x="195" 
d="M39 672l25 82h78l-29 -82h-74zM142 672l26 82h78l-30 -82h-74z" />
    <glyph glyph-name="endash" unicode="&#x2013;" horiz-adv-x="172" 
d="M13 446h145v-65h-145v65zM-8 0v53h197v-53h-197zM-8 779v53h197v-53h-197z" />
    <glyph glyph-name="emdash" unicode="&#x2014;" horiz-adv-x="203" 
d="M13 449h173v-65h-173v65zM-8 0v53h226v-53h-226zM-8 779v53h226v-53h-226z" />
    <glyph glyph-name="quoteleft" unicode="&#x2018;" horiz-adv-x="110" 
d="M93 625h-76v90l76 63v-153zM-8 0v53h137v-53h-137zM-8 779v53h137v-53h-137z" />
    <glyph glyph-name="quoteright" unicode="&#x2019;" horiz-adv-x="112" 
d="M81 779v-66l-77 -65v131h-12v53h129v-53h-40zM-8 0v53h129v-53h-129z" />
    <glyph glyph-name="quotesinglbase" unicode="&#x201a;" horiz-adv-x="84" 
d="M81 0v-67l-77 -65v132h-12v53h111v-53h-22zM-8 779v53h111v-53h-111z" />
    <glyph glyph-name="quotedblleft" unicode="&#x201c;" 
d="M90 623h-77v90l77 63v-153zM195 623h-77v90l77 63v-153zM-8 0v53h233v-53h-233zM-8 779v53h233v-53h-233z" />
    <glyph glyph-name="quotedblright" unicode="&#x201d;" horiz-adv-x="275" 
d="M195 779v-89l-77 -63v152h-28v-89l-77 -63v152h-21v53h233v-53h-30zM-8 0v53h233v-53h-233z" />
    <glyph glyph-name="quotedblbase" unicode="&#x201e;" horiz-adv-x="206" 
d="M117 0h-27v-67l-78 -65v132h-20v53h222v-53h-19v-67l-78 -65v132zM-8 779v53h222v-53h-222z" />
    <glyph glyph-name="dagger" unicode="&#x2020;" horiz-adv-x="184" 
d="M54 452h-41v65h41v211h77v-211h39v-65h-39v-347h-77v347zM-8 0v53h210v-53h-210zM-8 779v53h210v-53h-210z" />
    <glyph glyph-name="daggerdbl" unicode="&#x2021;" horiz-adv-x="184" 
d="M13 380h41v72h-41v65h41v211h77v-211h39v-65h-39v-72h39v-64h-39v-211h-77v211h-41v64zM-8 0v53h207v-53h-207zM-8 779v53h207v-53h-207z" />
    <glyph glyph-name="bullet" unicode="&#x2022;" horiz-adv-x="95" 
d="M-20 0v53h137v-53h-137zM-20 779v53h137v-53h-137z" />
    <glyph glyph-name="ellipsis" unicode="&#x2026;" horiz-adv-x="344" 
d="M116 200h76v-76h-76v76zM229 200h76v-76h-76v76zM2 200h76v-76h-76v76zM-19 0v53h382v-53h-382zM-19 779v53h382v-53h-382z" />
    <glyph glyph-name="perthousand" unicode="&#x2030;" horiz-adv-x="273" 
d="M171 557q0 -42 -21.5 -67.5t-59.5 -25.5q-41 0 -61.5 25.5t-20.5 67.5v87q0 41 23 65.5t59 24.5q38 0 59.5 -24.5t21.5 -65.5v-87zM8 417l164 46v-44l-164 -47v45zM102 656q0 18 -12 18q-7 0 -9.5 -5t-2.5 -13v-111q0 -18 12 -18t12 18v111zM266 195q0 -42 -22 -67.5
t-59 -25.5q-29 0 -49 14q-19 -14 -46 -14q-41 0 -61.5 25.5t-20.5 67.5v88q0 41 23 65t59 24q27 0 48 -13q21 13 47 13q38 0 59.5 -24t21.5 -65v-88zM102 294q0 18 -12 18t-12 -18v-111q0 -19 12 -19t12 19v111zM197 294q0 18 -12 18q-13 0 -13 -18v-111q0 -19 13 -19
q12 0 12 19v111zM-8 0v53h295v-53h-295zM-8 779v53h295v-53h-295z" />
    <glyph glyph-name="guilsinglleft" unicode="&#x2039;" horiz-adv-x="121" 
d="M107 527v-60l-60 -52l60 -53v-60l-94 75v75zM-8 0v53h145v-53h-145zM-8 779v53h145v-53h-145z" />
    <glyph glyph-name="guilsinglright" unicode="&#x203a;" horiz-adv-x="125" 
d="M20.0068 527v-60l59.9961 -52l-59.9961 -53v-60l93.9941 75v75zM135 0v53h-144.991v-53h144.991zM135 779v53h-144.991v-53h144.991z" />
    <glyph glyph-name="exclamdbl" unicode="&#x203c;" horiz-adv-x="274" 
d="M152 729h77v-482h-77v482zM228 181v-76h-76v76h76zM13 729h77v-482h-77v482zM89 181v-76h-76v76h76zM-8 0v53h298v-53h-298zM-8 779v53h298v-53h-298z" />
    <glyph glyph-name="asterism" unicode="&#x2042;" horiz-adv-x="271" 
d="M-8 0v53h291v-53h-291zM-8 779v53h291v-53h-291zM171 101l-36 51l-36 -51l-38 27l36 51l-60 20l14 44l60 -20v64h47v-64l61 20l14 -44l-61 -20l36 -51zM171 543l-36 51l-36 -51l-38 27l36 51l-60 20l14 44l60 -20v64h47v-64l61 20l14 -44l-61 -20l36 -51zM171 325l-36 51
l-36 -51l-38 27l36 51l-60 20l14 44l60 -20v64h47v-64l61 20l14 -44l-61 -20l36 -51z" />
    <glyph glyph-name="fraction" unicode="&#x2044;" horiz-adv-x="59" 
d="M-51 105l83 624h76l-81 -624h-78zM-43 0v53h142v-53h-142zM-43 779v53h142v-53h-142z" />
    <glyph glyph-name="Euro" unicode="&#x20ac;" horiz-adv-x="215" 
d="M96 343v-147q0 -12 2.5 -19t12.5 -7q13 0 13 26v99h76v-99q0 -43 -21.5 -69t-68.5 -26q-48 0 -69.5 24t-21.5 71v147h-16v65h16v27h-16v65h16v141q0 45 20.5 68.5t71.5 23.5q50 0 69.5 -25.5t19.5 -66.5v-102h-76v102q0 26 -13 26q-10 0 -12.5 -6.5t-2.5 -19.5v-141h82
v-65h-82v-27h82v-65h-82zM-8 779v53h236v-53h-236zM-8 0v53h236v-53h-236z" />
    <glyph glyph-name="published" unicode="&#x2117;" horiz-adv-x="469" 
d="M326 418q0 -36 -14.5 -60.5t-46.5 -24.5q-14 0 -23.5 4.5t-14.5 9.5v-146h-74v428h71l3 -9q5 4 12.5 8t22.5 4q36 0 50 -23t14 -58v-133zM253 550q0 20 -13 20q-8 0 -10.5 -6t-2.5 -14v-132q0 -19 13 -19t13 19v132zM90 53h288v726h-288v-726zM37 832h395v-832h-395v832z
" />
    <glyph glyph-name="servicemark" unicode="&#x2120;" horiz-adv-x="459" 
d="M373 411v204l-34 -191h-40q-10 59 -16 95.5t-9.5 57t-5 28.5t-1.5 10v-204h-74v318h92l34 -150l38 150h89v-318h-73zM182 503q0 -42 -22 -70t-64 -28q-43 0 -65 28t-22 70h73v-13q0 -8 3.5 -13.5t10.5 -5.5q13 0 13 21q0 11 -2.5 18.5t-8.5 14.5t-15.5 14t-24.5 17
q-20 14 -34.5 33t-14.5 50q0 42 23.5 67.5t64.5 25.5q42 0 63.5 -26t21.5 -67h-73v12q0 19 -13 19q-14 0 -14 -19q0 -16 11.5 -26.5t43.5 -31.5q20 -14 32.5 -35t12.5 -55zM-8 0v53h479v-53h-479zM-8 779v53h479v-53h-479z" />
    <glyph glyph-name="trademark" unicode="&#x2122;" horiz-adv-x="450" 
d="M366 410v192l-35 -176h-40q-10 54 -16 88t-9.5 52.5t-5 26t-1.5 9.5v-192h-73v318h91l35 -162l37 162h89v-318h-72zM56 410v250h-53v68h173v-68h-47v-250h-73zM-8 0v53h472v-53h-472zM-8 779v53h472v-53h-472z" />
    <glyph glyph-name="s_t" unicode="&#xfb06;" horiz-adv-x="326" 
d="M296 149q-48 0 -69.5 25.5t-21.5 80.5v310h-105q-13 0 -13 -17v-81q0 -14 9 -22.5t28 -19.5q10 -6 22 -14.5t22 -20t16.5 -25.5t6.5 -32v-85q0 -43 -21 -72.5t-68 -29.5q-42 0 -67.5 26t-25.5 67v99h78v-103q0 -7 3 -13.5t12 -6.5q7 0 9.5 6t2.5 14v86q0 13 -9 21t-24 16
l-9 6q-23 14 -43 36.5t-20 57.5v80q0 40 24 66.5t69 26.5h103v95h77v-95h42v-66h-42v-317q0 -15 4 -24t20 -9h18v-66h-28zM-8 0v53h353v-53h-353zM-8 779v53h353v-53h-353z" />
    <glyph glyph-name="s_p" horiz-adv-x="401" 
d="M191 250q0 -43 -21 -73t-68 -30q-42 0 -67.5 26t-25.5 68v83h78v-88q0 -7 3 -13.5t12 -6.5q7 0 9.5 6t2.5 14v87q0 12 -10 20.5t-32 21.5q-23 15 -43 37.5t-20 57.5v76q0 40 23.5 68t66.5 28h183l3 -10q5 5 13.5 9t23.5 4q38 0 53 -24t15 -60v-279q0 -38 -15 -63.5
t-49 -25.5q-15 0 -25 4.5t-15 9.5v-92h-78v462h-109q-12 -1 -12 -20v-79q0 -14 9 -22.5t28 -18.5q10 -6 22 -14.5t22 -20t16.5 -25.5t6.5 -32v-85zM313 549q0 9 -2.5 15t-10.5 6t-11 -6.5t-3 -14.5v-277q0 -8 3.5 -14t10.5 -6t10 6t3 14v277zM-8 0v53h421v-53h-421zM-8 779
v53h421v-53h-421z" />
    <glyph glyph-name="space.alt" horiz-adv-x="95" 
 />
    <glyph glyph-name="less.alt" horiz-adv-x="1198" 
d="M762 654h-493q-11 0 -18.5 8t-7.5 19t7.5 18.5t18.5 7.5h493v72h-369q-11 0 -18.5 7.5t-7.5 18.5t7.5 19t18.5 8h841v-53h-419v-726h419v-53h-841q-11 0 -18.5 7.5t-7.5 18.5t7.5 19t18.5 8h369v71h-493q-11 0 -18.5 8t-7.5 19t7.5 18.5t18.5 7.5h493v133h-646
q-22 0 -41 8.5t-33.5 22.5t-23 33.5t-8.5 41.5t8.5 41t23 33.5t33.5 23t41 8.5h646v132z" />
    <glyph glyph-name="greater.alt" horiz-adv-x="1198" 
d="M429 522h646q22 0 41 -8.5t33.5 -23t23 -33.5t8.5 -41t-8.5 -41.5t-23 -33.5t-33.5 -22.5t-41 -8.5h-646v-133h493q11 0 18.5 -7.5t7.5 -18.5t-7.5 -19t-18.5 -8h-493v-71h369q11 0 18.5 -8t7.5 -19t-7.5 -18.5t-18.5 -7.5h-841v53h419v726h-419v53h841q11 0 18.5 -8
t7.5 -19t-7.5 -18.5t-18.5 -7.5h-369v-72h493q11 0 18.5 -7.5t7.5 -18.5t-7.5 -19t-18.5 -8h-493v-132z" />
    <glyph glyph-name="parenleft.alt" horiz-adv-x="1383" 
d="M430 0q-33 0 -61.5 12t-50.5 33t-34.5 49.5t-12.5 61.5q0 30 10.5 56.5t29.5 47.5h-137q-33 0 -61.5 12t-50.5 33t-34.5 49.5t-12.5 61.5t12.5 61.5t34.5 49.5t50.5 33t61.5 12h137q-19 21 -29.5 47.5t-10.5 56.5q0 32 12.5 60.5t34.5 49.5t50.5 33.5t61.5 12.5h999v-53
h-434q18 -20 28.5 -47t10.5 -56q0 -42 -19 -75.5t-51 -54.5q32 -21 51 -55t19 -75q0 -42 -19 -75.5t-51 -54.5q32 -21 51 -55t19 -75q0 -30 -10.5 -56.5t-28.5 -46.5h434v-53h-999zM876 572q22 0 41.5 8t33.5 22.5t22.5 33.5t8.5 40t-8.5 40t-22.5 33t-33.5 22t-41.5 8h-446
q-23 0 -42.5 -8t-33.5 -22t-22.5 -33t-8.5 -40t8.5 -40t22.5 -33.5t33.5 -22.5t42.5 -8h446zM876 312q22 0 41.5 8t33.5 22.5t22.5 33.5t8.5 40t-8.5 40t-22.5 33.5t-33.5 22.5t-41.5 8h-702q-23 0 -42.5 -8t-33.5 -22.5t-22.5 -33.5t-8.5 -40t8.5 -40t22.5 -33.5
t33.5 -22.5t42.5 -8h702zM876 52q22 0 41.5 8t33.5 22.5t22.5 33.5t8.5 40t-8.5 40t-22.5 33.5t-33.5 22.5t-41.5 8h-446q-23 0 -42.5 -8t-33.5 -22.5t-22.5 -33.5t-8.5 -40t8.5 -40t22.5 -33.5t33.5 -22.5t42.5 -8h446z" />
    <glyph glyph-name="parenright.alt" horiz-adv-x="1386" 
d="M946 0h-999v53h434q-18 20 -28.5 46.5t-10.5 56.5q0 41 19 75t51 55q-32 21 -51 54.5t-19 75.5q0 41 19 75t51 55q-32 21 -51 54.5t-19 75.5q0 29 10.5 56t28.5 47h-434v53h999q33 0 61.5 -12.5t50.5 -33.5t34.5 -49.5t12.5 -60.5q0 -30 -10.5 -56.5t-29.5 -47.5h137
q33 0 61.5 -12t50.5 -33t34.5 -49.5t12.5 -61.5t-12.5 -61.5t-34.5 -49.5t-50.5 -33t-61.5 -12h-137q19 -21 29.5 -47.5t10.5 -56.5q0 -33 -12.5 -61.5t-34.5 -49.5t-50.5 -33t-61.5 -12zM500 572h446q22 0 42 8t34 22.5t22.5 33.5t8.5 40t-8.5 40t-22.5 33t-34 22t-42 8
h-446q-22 0 -41.5 -8t-33.5 -22t-22.5 -33t-8.5 -40t8.5 -40t22.5 -33.5t33.5 -22.5t41.5 -8zM500 312h702q22 0 42 8t34 22.5t22.5 33.5t8.5 40t-8.5 40t-22.5 33.5t-34 22.5t-42 8h-702q-22 0 -41.5 -8t-33.5 -22.5t-22.5 -33.5t-8.5 -40t8.5 -40t22.5 -33.5t33.5 -22.5
t41.5 -8zM500 52h446q22 0 42 8t34 22.5t22.5 33.5t8.5 40t-8.5 40t-22.5 33.5t-34 22.5t-42 8h-446q-22 0 -41.5 -8t-33.5 -22.5t-22.5 -33.5t-8.5 -40t8.5 -40t22.5 -33.5t33.5 -22.5t41.5 -8z" />
    <glyph glyph-name="braceleft.alt" horiz-adv-x="1093" 
d="M26 416q0 -12 8.5 -21t20.5 -9t20.5 9t8.5 21t-8.5 20.5t-20.5 8.5t-20.5 -8.5t-8.5 -20.5zM135 416q0 -24 16.5 -40.5t39.5 -16.5q24 0 40.5 16.5t16.5 40.5q0 23 -16.5 40t-40.5 17q-23 0 -39.5 -17t-16.5 -40zM347 416q0 -23 9 -43t24 -35t35 -24t43 -9t43.5 9
t35.5 24t23.5 35t8.5 43t-8.5 43t-23.5 35t-35.5 24t-43.5 9t-43 -9t-35 -24t-24 -35t-9 -43zM764 0l-223 223q-40 -17 -83 -17q-66 0 -118.5 36.5t-75.5 94.5q-30 -28 -73 -28q-33 0 -60 18.5t-39 47.5q-17 -15 -37 -15q-23 0 -39 16.5t-16 39.5t16 39t39 16q21 0 37 -14
q12 29 39 47.5t60 18.5q21 0 40 -7.5t33 -20.5q12 28 31 52.5t44.5 41.5t55.5 27t63 10q44 0 83 -17l223 223h383v-53h-330l-193 -235q21 -26 32.5 -59t11.5 -69t-11.5 -69t-32.5 -59l194 -235h329v-53h-383z" />
    <glyph glyph-name="braceright.alt" horiz-adv-x="1093" 
d="M1058 416q0 12 -8.5 20.5t-20.5 8.5t-20.5 -8.5t-8.5 -20.5t8.5 -21t20.5 -9t20.5 9t8.5 21zM949 416q0 23 -16.5 40t-39.5 17q-24 0 -40.5 -17t-16.5 -40q0 -24 16.5 -40.5t40.5 -16.5q23 0 39.5 16.5t16.5 40.5zM737 416q0 23 -9 43t-24 35t-35 24t-43 9t-43.5 -9
t-35.5 -24t-23.5 -35t-8.5 -43t8.5 -43t23.5 -35t35.5 -24t43.5 -9t43 9t35 24t24 35t9 43zM-63 0v53h329l194 235q-21 26 -32.5 59t-11.5 69t11.5 69t32.5 59l-193 235h-330v53h383l223 -223q39 17 83 17q33 0 63 -10t55.5 -27t44.5 -41.5t31 -52.5q14 13 33 20.5t40 7.5
q33 0 60 -18.5t39 -47.5q16 14 37 14q23 0 39 -16t16 -39t-16 -39.5t-39 -16.5q-20 0 -37 15q-12 -29 -39 -47.5t-60 -18.5q-43 0 -73 28q-23 -58 -75.5 -94.5t-118.5 -36.5q-43 0 -83 17l-223 -223h-383z" />
    <glyph glyph-name="bracketleft.alt" horiz-adv-x="1212" 
d="M206 532q-13 0 -22.5 9t-10.5 23q0 13 9.5 22.5t23.5 10.5h438v50q-17 2 -30 10.5t-21 22.5h-256q-14 0 -23.5 9t-9.5 23q0 13 9 23t24 10h256q8 14 22.5 23t31.5 11q8 28 32 40.5t53 12.5h532v-53h-527q-11 0 -13.5 -6t-2.5 -18v-274q0 -17 -6 -34.5t-21 -29.5
q14 -12 20.5 -30t6.5 -38v-271q0 -9 2 -17t14 -8h527v-53h-532q-26 0 -51 12t-34 41q-17 2 -31.5 11t-22.5 23h-256q-14 0 -23.5 9.5t-9.5 23.5t9.5 23t23.5 9h256q8 14 21 22.5t30 10.5v51h-438q-13 0 -23 9t-10 23t9.5 23.5t23.5 9.5h438v56q-13 -7 -30 -7
q-19 0 -34.5 9.5t-23.5 24.5h-523q-13 0 -23 9t-10 23q0 13 9.5 22.5t23.5 10.5h523q9 15 24 24t34 9q14 0 30 -7v57h-438z" />
    <glyph glyph-name="bracketright.alt" horiz-adv-x="1216" 
d="M998 532h-438v-57q16 7 30 7q19 0 34 -9t24 -24h523q14 -1 23.5 -10.5t9.5 -22.5q0 -14 -10 -23t-23 -9h-523q-8 -15 -23.5 -24.5t-34.5 -9.5q-17 0 -30 7v-56h438q14 0 23.5 -9.5t9.5 -23.5t-10 -23t-23 -9h-438v-51q17 -2 30 -10.5t21 -22.5h256q14 0 23.5 -9t9.5 -23
t-9.5 -23.5t-23.5 -9.5h-256q-8 -14 -22.5 -23t-31.5 -11q-9 -29 -34 -41t-51 -12h-532v53h527q12 0 14 8t2 17v271q0 20 6.5 38t20.5 30q-15 12 -21 29.5t-6 34.5v274q0 12 -2.5 18t-13.5 6h-527v53h532q29 0 53 -12.5t32 -40.5q17 -2 31.5 -11t22.5 -23h256q15 0 24 -10
t9 -23q0 -14 -9.5 -23t-23.5 -9h-256q-8 -14 -21 -22.5t-30 -10.5v-50h438q14 -1 23.5 -10.5t9.5 -22.5q-1 -14 -10.5 -23t-22.5 -9z" />
    <glyph glyph-name="bar.alt" horiz-adv-x="1034" 
d="M53 476q-22 0 -37.5 15t-15.5 38q0 22 15.5 37.5t37.5 15.5h536v144h-320q-22 0 -37.5 15.5t-15.5 37.5t15.5 37.5t37.5 15.5h792v-53h-419v-726h419v-53h-792q-22 0 -37.5 15.5t-15.5 37.5t15.5 37.5t37.5 15.5h320v144h-536q-22 0 -37.5 15.5t-15.5 37.5q0 23 15.5 38
t37.5 15h536v120h-536z" />
    <glyph glyph-name="logicalnot.alt" horiz-adv-x="1034" 
d="M974 476h-536v-120h536q22 0 37.5 -15t15.5 -38q0 -22 -15.5 -37.5t-37.5 -15.5h-536v-144h320q22 0 37.5 -15.5t15.5 -37.5t-15.5 -37.5t-37.5 -15.5h-792v53h419v726h-419v53h792q22 0 37.5 -15.5t15.5 -37.5t-15.5 -37.5t-37.5 -15.5h-320v-144h536q22 0 37.5 -15.5
t15.5 -37.5q0 -23 -15.5 -38t-37.5 -15z" />
    <glyph glyph-name="backslash.alt" horiz-adv-x="485" 
d="M-56 832h117q84 0 159.5 -33t132.5 -89.5t90 -132t33 -161.5t-32.5 -162t-89 -132.5t-132.5 -89t-162 -32.5h-116v53h117q75 0 141 28.5t115 78t77.5 115.5t28.5 141t-28.5 141t-77.5 115.5t-115.5 78t-141.5 28.5h-116v53z" />
    <glyph glyph-name="underscore.alt" horiz-adv-x="485" 
d="M532 779h-116q-75 0 -141.5 -28.5t-115.5 -78t-77.5 -115.5t-28.5 -141t28.5 -141t77.5 -115.5t115 -78t141 -28.5h117v-53h-116q-86 0 -162 32.5t-132.5 89t-89 132.5t-32.5 162t33 161.5t90 132t132.5 89.5t159.5 33h117v-53z" />
    </font>
</defs>
</svg>
